<svg width="355" height="226" viewBox="0 0 355 226" fill="none" xmlns="http://www.w3.org/2000/svg">
<path d="M354.943 59.6805V105.68L267.382 119.18C267.382 119.18 269.329 149.18 264.236 157.68C259.142 166.18 251.128 181.343 229.106 184.18C207.085 187.018 194.501 176.18 184.015 177.68C173.528 179.18 162.518 188.68 158.323 196.18C154.129 203.68 120.048 226.68 96.9777 222.68C73.9076 218.68 22.5242 200.688 11.5135 122.68C0.502751 44.6727 52.9348 32.6805 60.2753 30.1805C67.6157 27.6805 87.7565 22.1094 122.145 35.6809C156.534 49.2525 162.518 39.6874 180.869 26.1878C199.22 12.6881 209.707 18.1954 215.998 26.1876C222.29 34.1797 223.339 38.6884 224.388 60.1883C225.436 81.6883 255.322 76.1805 255.322 76.1805L354.943 59.6805Z" fill="#8A2626"/>
<path d="M354.943 51.6805V97.6805L267.382 111.18C267.382 111.18 269.329 141.18 264.236 149.68C259.142 158.18 251.128 173.343 229.106 176.18C207.085 179.018 194.501 168.18 184.015 169.68C173.528 171.18 162.518 180.68 158.323 188.18C154.129 195.68 120.048 218.68 96.9777 214.68C73.9076 210.68 22.5242 192.688 11.5135 114.68C0.502746 36.6727 52.9348 24.6805 60.2753 22.1805C67.6157 19.6805 87.7565 14.1094 122.145 27.6809C156.534 41.2525 162.518 31.6874 180.869 18.1878C199.22 4.68812 209.707 10.1954 215.998 18.1876C222.29 26.1797 223.339 30.6884 224.388 52.1883C225.436 73.6883 255.322 68.1805 255.322 68.1805L354.943 51.6805Z" fill="url(#paint0_linear_242_85)"/>
<path d="M31.3651 81.3843C28.3038 81.7235 25.5834 79.5459 25.2442 76.4847C24.9049 73.4234 27.0826 70.703 30.1438 70.3637C33.2051 70.0245 35.9255 72.2021 36.2647 75.2634C36.604 78.3246 34.4264 81.045 31.3651 81.3843ZM46.1478 79.2672L44.8547 67.5986L45.8263 68.3763L40.6778 68.9469L40.332 65.826L52.736 64.4513L53.0819 67.5722L47.9533 68.1406L48.731 67.169L50.0241 78.8376L46.1478 79.2672ZM60.3526 77.8741C59.0803 78.0151 57.9407 77.8999 56.9337 77.5286C55.9384 77.1425 55.1295 76.5614 54.5069 75.7853C53.8961 74.9944 53.5312 74.0622 53.4122 72.9888C53.2933 71.9154 53.4393 70.9333 53.8504 70.0426C54.2732 69.1372 54.9095 68.4027 55.7593 67.839C56.6076 67.262 57.5949 66.9111 58.7214 66.7863C59.7815 66.6688 60.7732 66.7803 61.6963 67.1207C62.6179 67.4478 63.3834 68.0002 63.9928 68.7778C64.6022 69.5554 64.9729 70.5406 65.1051 71.7333C65.1198 71.8658 65.13 72.0189 65.1359 72.1927C65.1417 72.3664 65.1461 72.5269 65.149 72.6742L56.6212 73.6192L56.4009 71.6314L62.921 70.9088L61.5514 71.624C61.5103 71.1322 61.3706 70.7184 61.1322 70.3826C60.907 70.0454 60.6111 69.7965 60.2445 69.6359C59.8912 69.4738 59.4892 69.4177 59.0386 69.4677C58.5881 69.5176 58.2015 69.6611 57.879 69.898C57.5697 70.1335 57.3429 70.4471 57.1985 70.8387C57.0526 71.2171 57.0068 71.6514 57.0611 72.1418L57.125 72.7182C57.1838 73.2483 57.3405 73.6938 57.5951 74.0546C57.863 74.4139 58.2141 74.6769 58.6484 74.8434C59.0812 74.9966 59.5826 75.0417 60.1524 74.9785C60.6825 74.9198 61.125 74.797 61.4799 74.6101C61.8466 74.4085 62.1978 74.1281 62.5337 73.7689L64.7506 75.6159C64.2969 76.2431 63.7093 76.7509 62.9877 77.1394C62.2646 77.5146 61.3862 77.7595 60.3526 77.8741ZM66.5638 77.0047L66.3814 73.9059C66.4756 73.9089 66.5632 73.9126 66.6442 73.917C66.7237 73.9082 66.7966 73.9001 66.8629 73.8928C67.1942 73.8561 67.4438 73.7479 67.6117 73.5683C67.7914 73.374 67.9115 73.126 67.9719 72.8241C68.0456 72.5208 68.0811 72.1748 68.0782 71.7861C68.0872 71.3827 68.0726 70.9483 68.0344 70.483L67.6956 65.9729L77.436 64.8935L78.6299 75.6675L74.8531 76.0861L73.897 67.4589L74.8266 68.2211L70.513 68.6991L71.209 67.7165L71.3717 70.2741C71.4392 71.246 71.4507 72.1368 71.4063 72.9466C71.3737 73.7417 71.2557 74.4322 71.0523 75.0182C70.849 75.6042 70.5322 76.0752 70.1022 76.4314C69.6839 76.7729 69.1236 76.9826 68.4212 77.0604C68.1695 77.0883 67.8816 77.0934 67.5577 77.0756C67.2485 77.0697 66.9172 77.046 66.5638 77.0047ZM86.734 74.9505C85.4618 75.0915 84.3222 74.9763 83.3152 74.605C82.3199 74.2189 81.511 73.6378 80.8884 72.8617C80.2776 72.0708 79.9127 71.1387 79.7937 70.0652C79.6748 68.9918 79.8208 68.0097 80.2319 67.1191C80.6547 66.2136 81.291 65.4791 82.1408 64.9154C82.989 64.3384 83.9764 63.9876 85.1028 63.8627C86.163 63.7452 87.1547 63.8567 88.0778 64.1971C88.9994 64.5242 89.7649 65.0766 90.3743 65.8542C90.9836 66.6318 91.3544 67.617 91.4866 68.8097C91.5012 68.9422 91.5115 69.0953 91.5173 69.2691C91.5232 69.4428 91.5276 69.6033 91.5305 69.7506L83.0027 70.6956L82.7824 68.7078L89.3025 67.9852L87.9329 68.7004C87.8918 68.2086 87.7521 67.7949 87.5136 67.4591C87.2884 67.1218 86.9926 66.8729 86.626 66.7123C86.2726 66.5502 85.8707 66.4942 85.4201 66.5441C84.9695 66.594 84.583 66.7375 84.2604 66.9744C83.9512 67.2099 83.7243 67.5235 83.5799 67.9151C83.434 68.2935 83.3883 68.7278 83.4426 69.2182L83.5065 69.7946C83.5652 70.3247 83.7219 70.7702 83.9765 71.131C84.2444 71.4904 84.5955 71.7533 85.0298 71.9198C85.4627 72.073 85.964 72.1181 86.5339 72.055C87.064 71.9962 87.5065 71.8734 87.8614 71.6865C88.2281 71.4849 88.5793 71.2045 88.9151 70.8453L91.1321 72.6924C90.6784 73.3195 90.0907 73.8273 89.3691 74.2158C88.6461 74.5911 87.7677 74.836 86.734 74.9505ZM94.0774 73.9556L92.8834 63.1816L101.908 62.1815L102.241 65.1831L96.1581 65.8572L96.8828 64.9519L97.8344 73.5393L94.0774 73.9556ZM111.378 72.2195C110.463 72.3208 109.66 72.2087 108.966 71.8831C108.271 71.5442 107.707 70.9897 107.273 70.2195C106.85 69.4346 106.569 68.406 106.428 67.1338C106.285 65.8484 106.328 64.7838 106.557 63.9402C106.784 63.0833 107.193 62.4208 107.785 61.9528C108.39 61.4832 109.177 61.1949 110.144 61.0877C111.125 60.979 112.038 61.1125 112.885 61.4882C113.743 61.8492 114.451 62.4214 115.007 63.2049C115.575 63.9737 115.922 64.9279 116.049 66.0676C116.175 67.2073 116.046 68.221 115.661 69.1088C115.29 69.9951 114.725 70.7083 113.967 71.2485C113.221 71.7872 112.359 72.1108 111.378 72.2195ZM105.007 76.6482L103.386 62.0178L106.984 61.619L107.186 63.4478L107.561 67.0083L108.156 70.5643L108.784 76.2296L105.007 76.6482ZM110.25 69.306C110.674 69.259 111.041 69.1178 111.35 68.8823C111.673 68.6453 111.912 68.3236 112.068 67.9173C112.238 67.5095 112.292 67.0339 112.232 66.4906C112.172 65.9472 112.014 65.4952 111.76 65.1343C111.518 64.7721 111.214 64.5106 110.848 64.35C110.495 64.1879 110.106 64.1304 109.682 64.1774C109.258 64.2244 108.884 64.3664 108.562 64.6033C108.253 64.8388 108.013 65.1605 107.844 65.5683C107.688 65.9747 107.64 66.4495 107.7 66.9928C107.76 67.5362 107.911 67.989 108.152 68.3513C108.407 68.7121 108.711 68.9735 109.064 69.1356C109.431 69.2962 109.826 69.353 110.25 69.306ZM124.607 70.5723L124.385 68.5646L124.071 68.0963L123.662 64.3989C123.596 63.8026 123.359 63.3659 122.953 63.089C122.559 62.7974 121.964 62.6956 121.169 62.7837C120.652 62.841 120.138 62.9851 119.627 63.2161C119.114 63.4339 118.689 63.7091 118.35 64.0418L116.794 61.6185C117.359 61.1534 118.054 60.7678 118.879 60.4618C119.715 60.141 120.558 59.9337 121.406 59.8397C123.155 59.6458 124.552 59.9002 125.595 60.6029C126.651 61.2908 127.273 62.4895 127.463 64.199L128.126 70.1824L124.607 70.5723ZM121.447 71.1037C120.585 71.1992 119.84 71.1342 119.212 70.9087C118.583 70.6832 118.082 70.3363 117.708 69.868C117.347 69.3982 117.132 68.8519 117.063 68.229C116.99 67.5664 117.092 66.9782 117.371 66.4644C117.661 65.9359 118.143 65.5068 118.818 65.1772C119.491 64.8343 120.384 64.6012 121.497 64.4778L124.042 64.1958L124.26 66.1638L122.232 66.3885C121.623 66.456 121.203 66.6032 120.973 66.8299C120.757 67.0551 120.667 67.3333 120.703 67.6646C120.74 67.9959 120.895 68.247 121.169 68.4179C121.443 68.5888 121.799 68.65 122.236 68.6015C122.647 68.556 123.007 68.4155 123.316 68.18C123.637 67.9298 123.854 67.5838 123.966 67.1421L124.637 68.4763C124.52 69.2405 124.192 69.847 123.651 70.296C123.122 70.7302 122.388 70.9994 121.447 71.1037ZM130.398 69.9306L129.204 59.1566L133.18 58.716L137.717 65.3366L136.146 65.5106L139.481 58.0177L143.039 57.6233L144.253 68.3952L140.854 68.7719L140.074 61.735L140.695 62.0686L137.985 68.1239L136.375 68.3024L132.375 62.709L133.011 62.4574L133.797 69.5539L130.398 69.9306ZM146.802 68.1128L145.608 57.3387L149.583 56.8982L154.12 63.5187L152.55 63.6928L155.885 56.1998L159.443 55.8055L160.657 66.5774L157.258 66.9541L156.478 59.9171L157.098 60.2508L154.389 66.3061L152.779 66.4845L148.778 60.8911L149.414 60.6395L150.201 67.7361L146.802 68.1128ZM168.205 61.4749L167.883 58.5727L173.688 57.9295L174.009 60.8317L168.205 61.4749ZM188.118 63.8158C187.243 63.9128 186.414 63.8772 185.631 63.7091C184.861 63.5396 184.168 63.2139 183.551 62.7323C182.947 62.2492 182.438 61.5879 182.023 60.7485C181.621 59.9076 181.352 58.8643 181.213 57.6186C181.121 56.7837 181.109 56.007 181.177 55.2885C181.245 54.57 181.392 53.903 181.619 53.2876C181.858 52.6575 182.184 52.0914 182.598 51.5895C183.025 51.086 183.54 50.6467 184.142 50.2714C184.744 49.8961 185.448 49.5834 186.252 49.3333L191.369 47.76L192.236 50.8634L187.799 52.2204C187.527 52.3043 187.229 52.4043 186.907 52.5205C186.597 52.6353 186.299 52.7891 186.012 52.9819C185.723 53.1614 185.461 53.3984 185.225 53.6928C185.003 53.9858 184.837 54.3597 184.726 54.8147C184.627 55.2549 184.613 55.7931 184.684 56.4292C184.704 56.6147 184.728 56.7664 184.754 56.8842C184.792 56.9873 184.826 57.111 184.856 57.2553C184.884 57.3863 184.913 57.591 184.944 57.8693L183.782 57.012C184.039 56.4202 184.364 55.9079 184.759 55.4751C185.167 55.0408 185.651 54.6854 186.21 54.4087C186.77 54.1321 187.408 53.9541 188.123 53.8748C189.17 53.7588 190.094 53.8643 190.895 54.1914C191.694 54.5053 192.332 54.998 192.809 55.6695C193.298 56.3264 193.592 57.1054 193.692 58.0065C193.81 59.0667 193.646 60.0105 193.201 60.8379C192.755 61.652 192.091 62.3225 191.21 62.8493C190.342 63.3615 189.311 63.6837 188.118 63.8158ZM187.9 60.9423C188.338 60.8939 188.705 60.7593 189.002 60.5385C189.313 60.3162 189.543 60.0292 189.692 59.6773C189.841 59.3254 189.892 58.9441 189.847 58.5333C189.8 58.1092 189.667 57.7551 189.447 57.4708C189.228 57.1866 188.943 56.9767 188.593 56.8411C188.256 56.7041 187.868 56.6598 187.431 56.7083C186.994 56.7567 186.612 56.8862 186.287 57.0967C185.975 57.3056 185.742 57.5662 185.589 57.8783C185.435 58.1904 185.382 58.5519 185.427 58.9627C185.473 59.3735 185.607 59.7409 185.831 60.0649C186.055 60.3889 186.343 60.6319 186.697 60.794C187.062 60.9414 187.463 60.9908 187.9 60.9423ZM201.3 62.2544C200.121 62.3851 199.048 62.2625 198.08 61.8868C197.113 61.511 196.318 60.9351 195.696 60.159C195.085 59.3681 194.719 58.4293 194.599 57.3426C194.478 56.256 194.63 55.2665 195.055 54.3744C195.492 53.4807 196.142 52.7513 197.005 52.1862C197.867 51.6078 198.887 51.2532 200.067 51.1225C201.246 50.9918 202.32 51.1143 203.287 51.4901C204.266 51.8511 205.06 52.4204 205.67 53.198C206.279 53.9756 206.644 54.9078 206.764 55.9945C206.885 57.0811 206.733 58.0772 206.311 58.9826C205.886 59.8748 205.237 60.6108 204.362 61.1907C203.5 61.7691 202.48 62.1236 201.3 62.2544ZM200.968 59.2527C201.405 59.2043 201.778 59.0623 202.088 58.8268C202.41 58.5898 202.65 58.2682 202.806 57.8618C202.961 57.4422 203.008 56.9608 202.948 56.4174C202.887 55.8741 202.737 55.4279 202.497 55.0789C202.256 54.7166 201.952 54.4551 201.585 54.2945C201.232 54.1325 200.837 54.0757 200.4 54.1241C199.975 54.1711 199.602 54.3131 199.28 54.5501C198.97 54.7856 198.731 55.1072 198.562 55.515C198.404 55.9081 198.355 56.3763 198.415 56.9197C198.476 57.463 198.627 57.9225 198.87 58.298C199.125 58.6588 199.429 58.9203 199.782 59.0823C200.148 59.2429 200.544 59.2997 200.968 59.2527ZM211.152 60.9815L210.198 52.3742L211.105 53.1188L206.812 53.5946L206.479 50.593L217.174 49.4078L217.506 52.4095L213.213 52.8853L213.955 51.9579L214.909 60.5652L211.152 60.9815Z" fill="#D4D4D4"/>
<path d="M35.8131 115.969C32.5332 116.332 29.6185 113.999 29.255 110.719C28.8915 107.439 31.2247 104.524 34.5046 104.161C37.7845 103.797 40.6993 106.131 41.0627 109.411C41.4262 112.69 39.0931 115.605 35.8131 115.969ZM55.0534 113.605C53.9535 113.727 52.914 113.668 51.9349 113.427C50.9676 113.172 50.1034 112.758 49.3423 112.185C48.5945 111.611 47.9799 110.908 47.4987 110.076C47.016 109.23 46.7159 108.278 46.5984 107.217C46.4809 106.157 46.5659 105.169 46.8533 104.251C47.1392 103.321 47.5841 102.494 48.188 101.769C48.8051 101.044 49.5585 100.457 50.4479 100.01C51.3492 99.5476 52.3498 99.2556 53.4497 99.1337C54.7352 98.9912 55.9065 99.0895 56.9636 99.4284C58.0339 99.7659 58.954 100.321 59.7239 101.095L57.4703 103.638C56.961 103.158 56.4193 102.809 55.8451 102.591C55.2841 102.371 54.6724 102.298 54.0098 102.372C53.4399 102.435 52.9267 102.586 52.4702 102.824C52.0137 103.062 51.633 103.38 51.3281 103.776C51.035 104.157 50.8162 104.604 50.6717 105.116C50.5405 105.627 50.508 106.181 50.5741 106.777C50.6402 107.373 50.7931 107.906 51.033 108.376C51.2861 108.844 51.5982 109.239 51.9691 109.56C52.3519 109.867 52.7921 110.086 53.2897 110.219C53.7873 110.351 54.3211 110.386 54.8909 110.323C55.5535 110.25 56.1345 110.044 56.6337 109.707C57.1462 109.369 57.5984 108.91 57.9902 108.33L60.746 110.318C60.1627 111.228 59.3865 111.971 58.4175 112.548C57.4602 113.11 56.3389 113.463 55.0534 113.605ZM67.5432 112.12C66.3638 112.251 65.2904 112.129 64.3231 111.753C63.3559 111.377 62.5609 110.801 61.9383 110.025C61.3275 109.234 60.9619 108.295 60.8414 107.209C60.721 106.122 60.873 105.133 61.2973 104.24C61.7348 103.347 62.3851 102.617 63.2481 102.052C64.1097 101.474 65.1301 101.119 66.3096 100.989C67.489 100.858 68.5624 100.98 69.5297 101.356C70.5087 101.717 71.3029 102.286 71.9123 103.064C72.5217 103.842 72.8865 104.774 73.007 105.86C73.1274 106.947 72.9762 107.943 72.5533 108.849C72.129 109.741 71.4795 110.477 70.6047 111.057C69.7432 111.635 68.7227 111.99 67.5432 112.12ZM67.2106 109.119C67.6479 109.07 68.0212 108.928 68.3305 108.693C68.653 108.456 68.8924 108.134 69.0486 107.728C69.2033 107.308 69.2505 106.827 69.1903 106.283C69.1301 105.74 68.9801 105.294 68.7402 104.945C68.4988 104.583 68.1948 104.321 67.8282 104.161C67.4749 103.998 67.0796 103.942 66.6422 103.99C66.2182 104.037 65.8449 104.179 65.5223 104.416C65.2131 104.652 64.9737 104.973 64.8043 105.381C64.6466 105.774 64.5979 106.242 64.6581 106.786C64.7183 107.329 64.8698 107.788 65.1127 108.164C65.3673 108.525 65.6713 108.786 66.0246 108.948C66.3912 109.109 66.7865 109.166 67.2106 109.119ZM80.7048 110.662C79.5254 110.793 78.452 110.67 77.4848 110.294C76.5175 109.918 75.7225 109.343 75.0999 108.566C74.4891 107.776 74.1235 106.837 74.0031 105.75C73.8826 104.663 74.0346 103.674 74.4589 102.782C74.8965 101.888 75.5467 101.159 76.4097 100.594C77.2713 100.015 78.2918 99.6607 79.4712 99.5299C80.6507 99.3992 81.724 99.5218 82.6913 99.8975C83.6703 100.259 84.4646 100.828 85.0739 101.605C85.6833 102.383 86.0482 103.315 86.1686 104.402C86.289 105.489 86.1378 106.485 85.715 107.39C85.2906 108.282 84.6411 109.018 83.7663 109.598C82.9048 110.177 81.8843 110.531 80.7048 110.662ZM80.3722 107.66C80.8095 107.612 81.1828 107.47 81.4921 107.234C81.8146 106.997 82.054 106.676 82.2102 106.269C82.3649 105.85 82.4122 105.368 82.3519 104.825C82.2917 104.282 82.1417 103.835 81.9018 103.486C81.6604 103.124 81.3564 102.863 80.9898 102.702C80.6365 102.54 80.2412 102.483 79.8038 102.532C79.3798 102.579 79.0065 102.721 78.684 102.958C78.3747 103.193 78.1353 103.515 77.9659 103.922C77.8082 104.316 77.7595 104.784 77.8197 105.327C77.8799 105.87 78.0314 106.33 78.2743 106.705C78.5289 107.066 78.8329 107.328 79.1862 107.49C79.5528 107.65 79.9481 107.707 80.3722 107.66ZM94.1756 109.27C93.301 109.367 92.472 109.331 91.6888 109.163C90.9187 108.993 90.2253 108.668 89.6085 108.186C89.005 107.703 88.4957 107.042 88.0807 106.202C87.679 105.361 87.4091 104.318 87.271 103.072C87.1785 102.238 87.1662 101.461 87.2342 100.742C87.3021 100.024 87.4495 99.3568 87.6765 98.7414C87.9152 98.1113 88.2415 97.5452 88.6554 97.0432C89.0825 96.5398 89.5973 96.1004 90.1996 95.7251C90.8019 95.3498 91.5051 95.0371 92.3091 94.7871L97.427 93.2138L98.2941 96.3172L93.8565 97.6742C93.5841 97.758 93.2866 97.8581 92.9642 97.9743C92.6549 98.0891 92.3567 98.2428 92.0695 98.4357C91.7809 98.6152 91.5187 98.8522 91.283 99.1466C91.0606 99.4396 90.8941 99.8135 90.7836 100.268C90.6848 100.709 90.6706 101.247 90.7411 101.883C90.7617 102.068 90.7852 102.22 90.8117 102.338C90.8499 102.441 90.8838 102.565 90.9132 102.709C90.9411 102.84 90.9705 103.045 91.0013 103.323L89.8399 102.466C90.0962 101.874 90.4218 101.362 90.8165 100.929C91.2245 100.495 91.7083 100.139 92.2679 99.8625C92.8275 99.5858 93.4651 99.4079 94.1807 99.3285C95.2276 99.2125 96.1516 99.3181 96.9525 99.6452C97.7519 99.959 98.39 100.452 98.8669 101.123C99.3556 101.78 99.6498 102.559 99.7497 103.46C99.8672 104.52 99.7035 105.464 99.2586 106.292C98.8122 107.106 98.1487 107.776 97.268 108.303C96.3991 108.815 95.3683 109.137 94.1756 109.27ZM93.9578 106.396C94.3951 106.348 94.7625 106.213 95.06 105.992C95.3708 105.77 95.6006 105.483 95.7494 105.131C95.8982 104.779 95.9498 104.398 95.9043 103.987C95.8573 103.563 95.7242 103.209 95.5049 102.925C95.2855 102.64 95.0007 102.43 94.6503 102.295C94.3132 102.158 93.9259 102.114 93.4886 102.162C93.0513 102.21 92.6699 102.34 92.3444 102.55C92.0322 102.759 91.7995 103.02 91.6463 103.332C91.493 103.644 91.4392 104.006 91.4847 104.416C91.5302 104.827 91.6649 105.195 91.8886 105.519C92.1123 105.843 92.4008 106.086 92.7542 106.248C93.1193 106.395 93.5205 106.445 93.9578 106.396ZM109.19 104.265L108.47 105.21L107.516 96.6032L111.273 96.1868L112.227 104.794L111.277 104.034L115.849 103.527L115.129 104.472L114.175 95.8652L117.912 95.451L119.106 106.225L102.031 108.117L100.837 97.3433L104.594 96.927L105.548 105.534L104.638 104.77L109.19 104.265ZM117.288 108.519L116.966 105.617L117.894 106.359L115.29 106.648L114.955 103.627L120.222 103.043L120.786 108.132L117.288 108.519ZM127.223 105.507C125.95 105.648 124.811 105.533 123.804 105.161C122.808 104.775 122 104.194 121.377 103.418C120.766 102.627 120.401 101.695 120.282 100.621C120.163 99.548 120.309 98.566 120.72 97.6753C121.143 96.7699 121.78 96.0353 122.629 95.4716C123.478 94.8947 124.465 94.5438 125.591 94.4189C126.652 94.3015 127.643 94.4129 128.566 94.7533C129.488 95.0805 130.253 95.6328 130.863 96.4104C131.472 97.1881 131.843 98.1732 131.975 99.3659C131.99 99.4984 132 99.6516 132.006 99.8253C132.012 99.9991 132.016 100.16 132.019 100.307L123.491 101.252L123.271 99.264L129.791 98.5415L128.421 99.2567C128.38 98.7649 128.241 98.3511 128.002 98.0153C127.777 97.678 127.481 97.4291 127.115 97.2685C126.761 97.1065 126.359 97.0504 125.909 97.1003C125.458 97.1502 125.072 97.2937 124.749 97.5307C124.44 97.7662 124.213 98.0797 124.068 98.4713C123.923 98.8497 123.877 99.2841 123.931 99.7744L123.995 100.351C124.054 100.881 124.21 101.326 124.465 101.687C124.733 102.047 125.084 102.31 125.518 102.476C125.951 102.629 126.453 102.674 127.022 102.611C127.553 102.552 127.995 102.43 128.35 102.243C128.717 102.041 129.068 101.761 129.404 101.402L131.621 103.249C131.167 103.876 130.579 104.384 129.858 104.772C129.135 105.147 128.256 105.392 127.223 105.507ZM139.993 104.092C138.8 104.224 137.707 104.103 136.713 103.731C135.732 103.356 134.931 102.781 134.308 102.005C133.684 101.216 133.312 100.278 133.192 99.1909C133.071 98.1042 133.23 97.114 133.667 96.2204C134.105 95.3268 134.762 94.5966 135.638 94.03C136.526 93.4487 137.566 93.0919 138.759 92.9597C139.978 92.8246 141.06 92.9663 142.006 93.3847C142.951 93.8031 143.661 94.4623 144.136 95.362L141.379 97.1767C141.072 96.7011 140.72 96.3711 140.324 96.187C139.927 95.9896 139.509 95.9151 139.072 95.9635C138.634 96.012 138.248 96.1555 137.912 96.3939C137.576 96.6323 137.324 96.9555 137.154 97.3633C136.997 97.7564 136.948 98.2246 137.008 98.7679C137.07 99.3245 137.221 99.7839 137.463 100.146C137.717 100.507 138.035 100.767 138.414 100.926C138.794 101.085 139.203 101.141 139.64 101.092C140.077 101.044 140.469 100.886 140.815 100.62C141.16 100.34 141.43 99.9346 141.626 99.4031L144.714 100.57C144.447 101.552 143.898 102.351 143.067 102.966C142.237 103.581 141.212 103.956 139.993 104.092ZM149.046 102.907L148.092 94.2999L148.999 95.0445L144.706 95.5203L144.373 92.5187L155.068 91.3335L155.4 94.3351L151.107 94.811L151.849 93.8836L152.803 102.491L149.046 102.907ZM157.725 101.945L156.531 91.1713L162.316 90.5303C163.707 90.3761 164.821 90.5008 165.657 90.9045C166.492 91.295 166.959 91.9407 167.059 92.8419C167.155 93.7033 166.866 94.4328 166.195 95.0304C165.535 95.6133 164.596 95.9723 163.376 96.1074L163.626 95.2748C164.938 95.1294 165.953 95.2652 166.67 95.6821C167.398 96.0843 167.814 96.7492 167.917 97.6768C168.023 98.631 167.735 99.4275 167.055 100.066C166.388 100.704 165.299 101.106 163.788 101.274L157.725 101.945ZM160.833 99.1259L163.179 98.8659C163.643 98.8145 163.979 98.6968 164.186 98.5128C164.392 98.3156 164.477 98.0513 164.44 97.72C164.402 97.3755 164.262 97.1361 164.019 97.0021C163.789 96.8666 163.449 96.8238 162.998 96.8737L160.613 97.138L160.833 99.1259ZM160.391 95.1303L162.458 94.9012C162.908 94.8513 163.231 94.7351 163.425 94.5525C163.618 94.3568 163.697 94.0998 163.662 93.7818C163.627 93.4637 163.495 93.2436 163.267 93.1213C163.037 92.9858 162.697 92.943 162.246 92.9929L160.179 93.222L160.391 95.1303ZM175.496 100.157C174.316 100.288 173.243 100.165 172.276 99.7896C171.308 99.4139 170.513 98.8379 169.891 98.0618C169.28 97.2709 168.914 96.3321 168.794 95.2454C168.673 94.1588 168.825 93.1693 169.25 92.2772C169.687 91.3835 170.338 90.6541 171.201 90.089C172.062 89.5106 173.083 89.156 174.262 89.0253C175.441 88.8946 176.515 89.0171 177.482 89.3929C178.461 89.7539 179.255 90.3232 179.865 91.1008C180.474 91.8784 180.839 92.8106 180.959 93.8973C181.08 94.9839 180.929 95.98 180.506 96.8854C180.081 97.7776 179.432 98.5136 178.557 99.0935C177.696 99.6719 176.675 100.026 175.496 100.157ZM175.163 97.1555C175.6 97.1071 175.974 96.9651 176.283 96.7296C176.605 96.4926 176.845 96.171 177.001 95.7646C177.156 95.345 177.203 94.8636 177.143 94.3202C177.083 93.7769 176.932 93.3307 176.693 92.9817C176.451 92.6194 176.147 92.3579 175.781 92.1973C175.427 92.0353 175.032 91.9785 174.595 92.0269C174.171 92.0739 173.797 92.2159 173.475 92.4529C173.165 92.6884 172.926 93.01 172.757 93.4178C172.599 93.8109 172.55 94.2791 172.611 94.8225C172.671 95.3658 172.822 95.8253 173.065 96.2008C173.32 96.5616 173.624 96.8231 173.977 96.9851C174.344 97.1457 174.739 97.2025 175.163 97.1555ZM191.55 102.282C190.98 102.345 190.393 102.316 189.79 102.195C189.201 102.086 188.711 101.906 188.321 101.654L189.34 98.8644C189.587 99.0382 189.863 99.162 190.166 99.2357C190.484 99.3212 190.789 99.3478 191.08 99.3155C191.491 99.2699 191.805 99.1412 192.023 98.9292C192.241 98.7173 192.415 98.403 192.543 97.9863L192.901 96.6789L193.157 96.2682L195.813 86.8182L199.411 86.4195L196.001 98.1463C195.733 99.1151 195.383 99.8851 194.949 100.456C194.531 101.039 194.036 101.47 193.463 101.748C192.903 102.025 192.265 102.202 191.55 102.282ZM192.624 98.5407L186.629 87.8359L190.505 87.4064L194.968 95.7254L192.624 98.5407ZM208.208 92.3265C207.862 92.5929 207.451 92.8261 206.977 93.0262C206.502 93.2131 205.939 93.3425 205.29 93.4145C203.792 93.5804 202.622 93.3747 201.78 92.7972C200.95 92.2051 200.453 91.1735 200.29 89.7025L199.92 86.363L203.697 85.9444L204.039 89.0256C204.106 89.6352 204.293 90.0504 204.599 90.2714C204.906 90.4923 205.324 90.5734 205.854 90.5147C206.265 90.4692 206.637 90.3809 206.971 90.25C207.317 90.1043 207.627 89.9292 207.899 89.7246L208.208 92.3265ZM208.39 96.3308L207.196 85.5567L210.953 85.1404L212.147 95.9144L208.39 96.3308ZM220.266 95.1957C218.994 95.3367 217.854 95.2215 216.847 94.8502C215.852 94.4641 215.043 93.883 214.421 93.1069C213.81 92.316 213.445 91.3839 213.326 90.3104C213.207 89.237 213.353 88.2549 213.764 87.3642C214.187 86.4588 214.823 85.7243 215.673 85.1606C216.521 84.5836 217.509 84.2327 218.635 84.1079C219.695 83.9904 220.687 84.1019 221.61 84.4423C222.532 84.7694 223.297 85.3218 223.907 86.0994C224.516 86.877 224.887 87.8622 225.019 89.0549C225.033 89.1874 225.044 89.3405 225.05 89.5143C225.055 89.688 225.06 89.8485 225.063 89.9958L216.535 90.9408L216.315 88.953L222.835 88.2304L221.465 88.9456C221.424 88.4538 221.284 88.04 221.046 87.7043C220.821 87.367 220.525 87.1181 220.158 86.9575C219.805 86.7954 219.403 86.7394 218.952 86.7893C218.502 86.8392 218.115 86.9827 217.793 87.2196C217.483 87.4551 217.257 87.7687 217.112 88.1603C216.966 88.5387 216.921 88.973 216.975 89.4634L217.039 90.0398C217.097 90.5699 217.254 91.0154 217.509 91.3762C217.777 91.7355 218.128 91.9985 218.562 92.165C218.995 92.3182 219.496 92.3633 220.066 92.3001C220.596 92.2414 221.039 92.1186 221.394 91.9317C221.76 91.7301 222.112 91.4497 222.447 91.0905L224.664 92.9376C224.211 93.5647 223.623 94.0725 222.901 94.461C222.178 94.8363 221.3 95.0812 220.266 95.1957ZM227.61 94.2008L226.416 83.4268L230.173 83.0104L230.615 87.006L234.492 86.5764L234.049 82.5809L237.826 82.1623L239.02 92.9364L235.243 93.3549L234.824 89.578L230.948 90.0076L231.367 93.7845L227.61 94.2008ZM241.567 92.6541L240.373 81.88L244.13 81.4637L244.756 87.1091L248.643 80.9636L252.121 80.5781L253.315 91.3521L249.538 91.7707L248.911 86.1054L245.066 92.2664L241.567 92.6541ZM263.408 90.2336L259.571 85.5679L262.414 83.4418L267.861 89.7402L263.408 90.2336ZM255.855 91.0707L254.661 80.2967L258.438 79.8781L259.632 90.6522L255.855 91.0707ZM258.093 86.939L257.765 83.9772L261.661 83.5454L261.989 86.5073L258.093 86.939ZM262.997 85.2486L259.419 85.2829L262.433 79.4353L266.429 78.9926L262.997 85.2486ZM274.13 89.2266C272.951 89.3573 271.877 89.2347 270.91 88.859C269.943 88.4833 269.148 87.9073 268.525 87.1312C267.914 86.3403 267.549 85.4015 267.428 84.3148C267.308 83.2282 267.46 82.2387 267.884 81.3466C268.322 80.4529 268.972 79.7235 269.835 79.1584C270.697 78.58 271.717 78.2254 272.896 78.0947C274.076 77.964 275.149 78.0865 276.117 78.4623C277.096 78.8233 277.89 79.3926 278.499 80.1702C279.109 80.9478 279.473 81.88 279.594 82.9667C279.714 84.0533 279.563 85.0494 279.14 85.9548C278.716 86.847 278.066 87.583 277.192 88.1629C276.33 88.7413 275.31 89.0959 274.13 89.2266ZM273.797 86.2249C274.235 86.1765 274.608 86.0345 274.917 85.799C275.24 85.562 275.479 85.2404 275.635 84.834C275.79 84.4144 275.837 83.933 275.777 83.3896C275.717 82.8463 275.567 82.4001 275.327 82.0511C275.086 81.6888 274.782 81.4273 274.415 81.2667C274.062 81.1047 273.666 81.0479 273.229 81.0963C272.805 81.1433 272.432 81.2853 272.109 81.5223C271.8 81.7578 271.561 82.0794 271.391 82.4872C271.233 82.8803 271.185 83.3485 271.245 83.8919C271.305 84.4352 271.457 84.8947 271.7 85.2702C271.954 85.631 272.258 85.8925 272.611 86.0545C272.978 86.2151 273.373 86.2719 273.797 86.2249ZM281.964 88.1773L280.77 77.4032L286.555 76.7622C287.947 76.608 289.06 76.7327 289.897 77.1364C290.731 77.5268 291.199 78.1726 291.298 79.0738C291.394 79.9352 291.106 80.6647 290.434 81.2623C289.774 81.8452 288.835 82.2042 287.616 82.3393L287.866 81.5067C289.178 81.3613 290.192 81.4971 290.909 81.914C291.638 82.3161 292.053 82.9811 292.156 83.9087C292.262 84.8629 291.975 85.6594 291.294 86.2982C290.627 86.9356 289.538 87.338 288.027 87.5054L281.964 88.1773ZM285.073 85.3577L287.418 85.0978C287.882 85.0464 288.218 84.9287 288.426 84.7447C288.632 84.5475 288.717 84.2832 288.68 83.9519C288.642 83.6073 288.501 83.368 288.258 83.234C288.029 83.0984 287.688 83.0556 287.238 83.1056L284.852 83.3699L285.073 85.3577ZM284.63 81.3622L286.697 81.1331C287.148 81.0832 287.47 80.9669 287.665 80.7844C287.858 80.5886 287.937 80.3317 287.901 80.0137C287.866 79.6956 287.734 79.4755 287.506 79.3532C287.277 79.2177 286.936 79.1749 286.486 79.2248L284.418 79.4539L284.63 81.3622Z" fill="#D4D4D4"/>
<path d="M41.8131 153.021C38.5332 153.384 35.6185 151.051 35.255 147.771C34.8915 144.491 37.2247 141.577 40.5046 141.213C43.7845 140.85 46.6993 143.183 47.0627 146.463C47.4262 149.743 45.0931 152.657 41.8131 153.021ZM63.2384 148.403L62.2317 139.319L58.2361 139.761L58.3439 141.279C58.407 142.09 58.4377 142.851 58.436 143.562C58.4476 144.272 58.4194 144.926 58.3515 145.524C58.2969 146.12 58.187 146.642 58.022 147.09C57.8687 147.522 57.6588 147.868 57.3922 148.125L53.1428 148.093C53.6081 148.055 53.9689 147.861 54.2252 147.51C54.4933 147.145 54.6812 146.662 54.7889 146.059C54.9098 145.456 54.9659 144.752 54.9573 143.948C54.962 143.143 54.932 142.267 54.8675 141.322L54.5507 137.011L65.7621 135.768L67.1147 147.973L63.2384 148.403ZM53.3819 154.063L52.7254 148.139L68.8467 146.353L69.5032 152.276L65.9052 152.675L65.5946 149.872L56.6891 150.859L56.9997 153.662L53.3819 154.063ZM76.1251 148.886C74.9456 149.017 73.8723 148.895 72.905 148.519C71.9377 148.143 71.1428 147.567 70.5202 146.791C69.9093 146 69.5437 145.061 69.4233 143.975C69.3029 142.888 69.4548 141.899 69.8791 141.007C70.3167 140.113 70.967 139.383 71.83 138.818C72.6915 138.24 73.712 137.885 74.8914 137.755C76.0709 137.624 77.1443 137.746 78.1115 138.122C79.0906 138.483 79.8848 139.053 80.4941 139.83C81.1035 140.608 81.4684 141.54 81.5888 142.627C81.7092 143.713 81.558 144.709 81.1352 145.615C80.7109 146.507 80.0613 147.243 79.1865 147.823C78.325 148.401 77.3045 148.756 76.1251 148.886ZM75.7924 145.885C76.2298 145.836 76.6031 145.694 76.9123 145.459C77.2349 145.222 77.4742 144.9 77.6304 144.494C77.7851 144.074 77.8324 143.593 77.7722 143.05C77.712 142.506 77.5619 142.06 77.322 141.711C77.0806 141.349 76.7767 141.087 76.4101 140.927C76.0567 140.765 75.6614 140.708 75.2241 140.756C74.8 140.803 74.4267 140.945 74.1042 141.182C73.7949 141.418 73.5555 141.739 73.3861 142.147C73.2284 142.54 73.1797 143.008 73.2399 143.552C73.3001 144.095 73.4517 144.555 73.6945 144.93C73.9491 145.291 74.2531 145.552 74.6064 145.714C74.973 145.875 75.3684 145.932 75.7924 145.885ZM83.9594 147.837L82.7654 137.063L93.8972 135.83L95.0912 146.604L91.3342 147.02L90.3826 138.432L91.3078 139.155L86.04 139.739L86.7647 138.833L87.7164 147.421L83.9594 147.837ZM102.992 145.909C101.812 146.04 100.739 145.917 99.7718 145.542C98.8045 145.166 98.0096 144.59 97.3869 143.814C96.7761 143.023 96.4105 142.084 96.2901 140.997C96.1696 139.911 96.3216 138.921 96.7459 138.029C97.1835 137.136 97.8338 136.406 98.6968 135.841C99.5583 135.263 100.579 134.908 101.758 134.777C102.938 134.647 104.011 134.769 104.978 135.145C105.957 135.506 106.752 136.075 107.361 136.853C107.97 137.63 108.335 138.563 108.456 139.649C108.576 140.736 108.425 141.732 108.002 142.637C107.578 143.53 106.928 144.266 106.053 144.845C105.192 145.424 104.171 145.778 102.992 145.909ZM102.659 142.908C103.097 142.859 103.47 142.717 103.779 142.482C104.102 142.245 104.341 141.923 104.497 141.517C104.652 141.097 104.699 140.616 104.639 140.072C104.579 139.529 104.429 139.083 104.189 138.734C103.947 138.371 103.643 138.11 103.277 137.949C102.924 137.787 102.528 137.73 102.091 137.779C101.667 137.826 101.293 137.968 100.971 138.205C100.662 138.44 100.422 138.762 100.253 139.17C100.095 139.563 100.046 140.031 100.107 140.574C100.167 141.118 100.318 141.577 100.561 141.953C100.816 142.314 101.12 142.575 101.473 142.737C101.84 142.898 102.235 142.955 102.659 142.908ZM109.539 145.003L109.356 141.904C109.451 141.907 109.538 141.91 109.619 141.915C109.699 141.906 109.772 141.898 109.838 141.891C110.169 141.854 110.419 141.746 110.587 141.566C110.766 141.372 110.886 141.124 110.947 140.822C111.021 140.519 111.056 140.173 111.053 139.784C111.062 139.381 111.047 138.946 111.009 138.481L110.67 133.971L120.411 132.891L121.605 143.665L117.828 144.084L116.872 135.457L117.802 136.219L113.488 136.697L114.184 135.714L114.347 138.272C114.414 139.244 114.426 140.135 114.381 140.944C114.349 141.74 114.231 142.43 114.027 143.016C113.824 143.602 113.507 144.073 113.077 144.429C112.659 144.771 112.099 144.98 111.396 145.058C111.144 145.086 110.856 145.091 110.533 145.073C110.223 145.068 109.892 145.044 109.539 145.003ZM124.143 143.384L122.949 132.61L126.706 132.194L127.149 136.189L131.025 135.76L130.582 131.764L134.359 131.346L135.553 142.12L131.776 142.538L131.358 138.761L127.481 139.191L127.9 142.968L124.143 143.384ZM138.101 141.837L136.907 131.063L140.664 130.647L141.289 136.292L145.176 130.147L148.655 129.761L149.849 140.535L146.072 140.954L145.444 135.289L141.599 141.45L138.101 141.837ZM154.793 139.987L153.84 131.38L154.747 132.125L150.453 132.601L150.121 129.599L160.815 128.414L161.148 131.415L156.854 131.891L157.597 130.964L158.55 139.571L154.793 139.987ZM168.611 138.637C167.339 138.778 166.2 138.663 165.193 138.292C164.197 137.906 163.388 137.325 162.766 136.548C162.155 135.758 161.79 134.825 161.671 133.752C161.552 132.679 161.698 131.696 162.109 130.806C162.532 129.9 163.168 129.166 164.018 128.602C164.866 128.025 165.854 127.674 166.98 127.549C168.04 127.432 169.032 127.543 169.955 127.884C170.877 128.211 171.642 128.763 172.252 129.541C172.861 130.319 173.232 131.304 173.364 132.496C173.379 132.629 173.389 132.782 173.395 132.956C173.401 133.13 173.405 133.29 173.408 133.437L164.88 134.382L164.66 132.394L171.18 131.672L169.81 132.387C169.769 131.895 169.629 131.482 169.391 131.146C169.166 130.809 168.87 130.56 168.503 130.399C168.15 130.237 167.748 130.181 167.297 130.231C166.847 130.281 166.46 130.424 166.138 130.661C165.829 130.897 165.602 131.21 165.457 131.602C165.311 131.98 165.266 132.415 165.32 132.905L165.384 133.481C165.443 134.011 165.599 134.457 165.854 134.818C166.122 135.177 166.473 135.44 166.907 135.606C167.34 135.76 167.841 135.805 168.411 135.742C168.941 135.683 169.384 135.56 169.739 135.373C170.105 135.172 170.457 134.891 170.792 134.532L173.009 136.379C172.556 137.006 171.968 137.514 171.247 137.903C170.523 138.278 169.645 138.523 168.611 138.637ZM174.823 137.768L174.64 134.669C174.734 134.672 174.822 134.676 174.903 134.68C174.983 134.671 175.055 134.663 175.122 134.656C175.453 134.619 175.703 134.511 175.871 134.331C176.05 134.137 176.17 133.889 176.231 133.587C176.304 133.284 176.34 132.938 176.337 132.549C176.346 132.146 176.331 131.711 176.293 131.246L175.954 126.736L185.695 125.657L186.889 136.431L183.112 136.849L182.156 128.222L183.085 128.984L178.772 129.462L179.468 128.48L179.631 131.037C179.698 132.009 179.71 132.9 179.665 133.71C179.633 134.505 179.515 135.195 179.311 135.781C179.108 136.367 178.791 136.838 178.361 137.195C177.943 137.536 177.382 137.746 176.68 137.824C176.428 137.851 176.14 137.857 175.817 137.839C175.507 137.833 175.176 137.809 174.823 137.768ZM194.924 128.014C196.357 127.869 197.486 128.066 198.31 128.605C199.134 129.144 199.611 129.99 199.738 131.143C199.87 132.336 199.537 133.325 198.739 134.111C197.953 134.883 196.797 135.346 195.271 135.502L189.427 136.149L188.233 125.375L191.99 124.959L192.36 128.299L194.924 128.014ZM194.607 132.959C195.058 132.909 195.397 132.765 195.625 132.525C195.854 132.285 195.944 131.946 195.895 131.509C195.845 131.058 195.684 130.754 195.412 130.596C195.153 130.437 194.79 130.377 194.325 130.415L192.616 130.604L192.895 133.129L194.607 132.959ZM201.773 134.781L200.579 124.007L204.336 123.591L204.779 127.586L208.655 127.157L208.213 123.161L211.989 122.743L213.183 133.517L209.407 133.935L208.988 130.158L205.112 130.588L205.53 134.365L201.773 134.781ZM227.081 131.977L225.887 121.202L229.644 120.786L230.838 131.56L227.081 131.977ZM221.069 125.117C222.502 124.972 223.604 125.171 224.375 125.716C225.16 126.26 225.616 127.108 225.744 128.261C225.876 129.454 225.57 130.44 224.824 131.221C224.078 131.987 222.941 132.449 221.416 132.604L215.731 133.234L214.537 122.46L218.294 122.044L218.664 125.384L221.069 125.117ZM220.752 130.062C221.203 130.012 221.542 129.867 221.77 129.627C221.999 129.387 222.088 129.049 222.04 128.611C221.99 128.161 221.829 127.857 221.557 127.699C221.297 127.54 220.935 127.479 220.47 127.518L218.919 127.689L219.199 130.214L220.752 130.062ZM238.962 130.841C237.69 130.982 236.55 130.867 235.543 130.495C234.548 130.109 233.739 129.528 233.116 128.752C232.506 127.961 232.141 127.029 232.022 125.956C231.903 124.882 232.049 123.9 232.46 123.01C232.883 122.104 233.519 121.37 234.369 120.806C235.217 120.229 236.204 119.878 237.331 119.753C238.391 119.636 239.383 119.747 240.306 120.088C241.227 120.415 241.993 120.967 242.602 121.745C243.212 122.522 243.582 123.507 243.715 124.7C243.729 124.833 243.739 124.986 243.745 125.16C243.751 125.333 243.756 125.494 243.758 125.641L235.231 126.586L235.01 124.598L241.53 123.876L240.161 124.591C240.12 124.099 239.98 123.685 239.742 123.35C239.516 123.012 239.221 122.763 238.854 122.603C238.501 122.441 238.099 122.385 237.648 122.435C237.197 122.485 236.811 122.628 236.488 122.865C236.179 123.1 235.952 123.414 235.808 123.806C235.662 124.184 235.616 124.618 235.671 125.109L235.734 125.685C235.793 126.215 235.95 126.661 236.205 127.022C236.472 127.381 236.823 127.644 237.258 127.81C237.691 127.964 238.192 128.009 238.762 127.945C239.292 127.887 239.734 127.764 240.089 127.577C240.456 127.375 240.807 127.095 241.143 126.736L243.36 128.583C242.906 129.21 242.319 129.718 241.597 130.106C240.874 130.482 239.996 130.726 238.962 130.841ZM44.7933 176.324L43.5994 165.55L47.575 165.11L52.1119 171.73L50.5415 171.904L53.8765 164.412L57.4347 164.017L58.6485 174.789L55.2493 175.166L54.4695 168.129L55.09 168.463L52.3805 174.518L50.7704 174.696L46.7699 169.103L47.4061 168.851L48.1925 175.948L44.7933 176.324ZM67.5778 173.8L67.3553 171.792L67.0418 171.323L66.632 167.626C66.566 167.03 66.3298 166.593 65.9235 166.316C65.5289 166.025 64.9341 165.923 64.139 166.011C63.6221 166.068 63.1082 166.212 62.5972 166.443C62.0848 166.661 61.6591 166.936 61.3204 167.269L59.764 164.846C60.3296 164.381 61.0246 163.995 61.8493 163.689C62.6857 163.368 63.528 163.161 64.3761 163.067C66.1254 162.873 67.522 163.127 68.5657 163.83C69.6212 164.518 70.2437 165.717 70.4332 167.426L71.0962 173.41L67.5778 173.8ZM64.4171 174.331C63.5557 174.426 62.8106 174.361 62.182 174.136C61.5533 173.91 61.0521 173.564 60.6782 173.095C60.3176 172.625 60.1028 172.079 60.0338 171.456C59.9603 170.794 60.0628 170.205 60.3413 169.692C60.6315 169.163 61.1138 168.734 61.7883 168.404C62.4613 168.061 63.3544 167.828 64.4676 167.705L67.012 167.423L67.2301 169.391L65.2025 169.616C64.5929 169.683 64.1732 169.83 63.9434 170.057C63.7269 170.282 63.637 170.561 63.6738 170.892C63.7105 171.223 63.8657 171.474 64.1396 171.645C64.4134 171.816 64.7689 171.877 65.2063 171.829C65.6171 171.783 65.9771 171.643 66.2864 171.407C66.6075 171.157 66.824 170.811 66.936 170.369L67.6071 171.704C67.4905 172.468 67.162 173.074 66.6215 173.523C66.0928 173.957 65.358 174.227 64.4171 174.331ZM75.7737 172.891L74.8198 164.284L75.7274 165.029L71.4337 165.504L71.101 162.503L81.7955 161.318L82.1282 164.319L77.8345 164.795L78.5768 163.868L79.5307 172.475L75.7737 172.891ZM89.5917 171.541C88.3195 171.682 87.1799 171.567 86.1728 171.196C85.1776 170.809 84.3687 170.228 83.7461 169.452C83.1352 168.661 82.7703 167.729 82.6514 166.656C82.5324 165.582 82.6785 164.6 83.0895 163.71C83.5124 162.804 84.1487 162.07 84.9984 161.506C85.8467 160.929 86.8341 160.578 87.9605 160.453C89.0207 160.336 90.0123 160.447 90.9354 160.788C91.8571 161.115 92.6226 161.667 93.2319 162.445C93.8413 163.222 94.2121 164.208 94.3442 165.4C94.3589 165.533 94.3692 165.686 94.375 165.86C94.3809 166.033 94.3852 166.194 94.3881 166.341L85.8603 167.286L85.6401 165.298L92.1601 164.576L90.7906 165.291C90.7495 164.799 90.6097 164.385 90.3713 164.05C90.1461 163.712 89.8502 163.463 89.4837 163.303C89.1303 163.141 88.7284 163.085 88.2778 163.135C87.8272 163.185 87.4407 163.328 87.1181 163.565C86.8089 163.8 86.582 164.114 86.4376 164.506C86.2917 164.884 86.246 165.318 86.3003 165.809L86.3642 166.385C86.4229 166.915 86.5796 167.361 86.8342 167.722C87.1021 168.081 87.4532 168.344 87.8875 168.51C88.3204 168.664 88.8217 168.709 89.3916 168.645C89.9216 168.587 90.3641 168.464 90.719 168.277C91.0857 168.075 91.437 167.795 91.7728 167.436L93.9897 169.283C93.5361 169.91 92.9484 170.418 92.2268 170.806C91.5037 171.182 90.6254 171.427 89.5917 171.541ZM103.733 169.974C102.819 170.075 102.015 169.963 101.322 169.637C100.627 169.299 100.062 168.744 99.6281 167.974C99.2058 167.189 98.9241 166.16 98.7831 164.888C98.6407 163.603 98.6837 162.538 98.9122 161.695C99.1392 160.838 99.5487 160.175 100.141 159.707C100.746 159.238 101.532 158.949 102.5 158.842C103.48 158.733 104.394 158.867 105.241 159.243C106.099 159.604 106.806 160.176 107.363 160.959C107.931 161.728 108.278 162.682 108.404 163.822C108.531 164.962 108.401 165.975 108.017 166.863C107.646 167.749 107.081 168.463 106.322 169.003C105.577 169.542 104.714 169.865 103.733 169.974ZM97.3624 174.403L95.7411 159.772L99.3391 159.373L99.5418 161.202L99.9162 164.763L100.512 168.319L101.139 173.984L97.3624 174.403ZM102.606 167.06C103.03 167.013 103.396 166.872 103.706 166.637C104.028 166.4 104.268 166.078 104.424 165.672C104.593 165.264 104.648 164.788 104.588 164.245C104.527 163.702 104.37 163.25 104.115 162.889C103.874 162.526 103.57 162.265 103.203 162.104C102.85 161.942 102.461 161.885 102.037 161.932C101.613 161.979 101.24 162.121 100.917 162.358C100.608 162.593 100.369 162.915 100.199 163.323C100.043 163.729 99.9951 164.204 100.055 164.747C100.116 165.291 100.266 165.743 100.508 166.106C100.762 166.466 101.066 166.728 101.42 166.89C101.786 167.051 102.182 167.107 102.606 167.06ZM110.815 169.008L109.621 158.234L113.378 157.818L114.004 163.463L117.89 157.318L121.369 156.932L122.563 167.706L118.786 168.125L118.158 162.459L114.314 168.62L110.815 169.008ZM131.483 166.718L131.261 164.71L130.947 164.242L130.538 160.544C130.472 159.948 130.235 159.511 129.829 159.234C129.435 158.943 128.84 158.841 128.045 158.929C127.528 158.986 127.014 159.13 126.503 159.361C125.99 159.579 125.565 159.854 125.226 160.187L123.67 157.764C124.235 157.299 124.93 156.913 125.755 156.607C126.591 156.286 127.434 156.079 128.282 155.985C130.031 155.791 131.428 156.045 132.471 156.748C133.527 157.436 134.149 158.635 134.339 160.344L135.002 166.328L131.483 166.718ZM128.323 167.249C127.461 167.344 126.716 167.279 126.088 167.054C125.459 166.828 124.958 166.482 124.584 166.013C124.223 165.543 124.008 164.997 123.939 164.374C123.866 163.712 123.969 163.123 124.247 162.61C124.537 162.081 125.019 161.652 125.694 161.322C126.367 160.98 127.26 160.746 128.373 160.623L130.918 160.341L131.136 162.309L129.108 162.534C128.499 162.601 128.079 162.748 127.849 162.975C127.633 163.2 127.543 163.479 127.579 163.81C127.616 164.141 127.771 164.392 128.045 164.563C128.319 164.734 128.675 164.795 129.112 164.747C129.523 164.701 129.883 164.561 130.192 164.325C130.513 164.075 130.73 163.729 130.842 163.287L131.513 164.622C131.396 165.386 131.068 165.992 130.527 166.441C129.998 166.875 129.264 167.145 128.323 167.249ZM136.181 166.197L135.998 163.098C136.093 163.101 136.18 163.105 136.261 163.109C136.341 163.101 136.414 163.092 136.48 163.085C136.811 163.048 137.061 162.94 137.229 162.761C137.408 162.566 137.528 162.318 137.589 162.016C137.663 161.713 137.698 161.367 137.695 160.978C137.704 160.575 137.69 160.141 137.651 159.675L137.313 155.165L147.053 154.086L148.247 164.86L144.47 165.278L143.514 156.651L144.444 157.413L140.13 157.891L140.826 156.909L140.989 159.466C141.056 160.438 141.068 161.329 141.023 162.139C140.991 162.934 140.873 163.625 140.669 164.211C140.466 164.796 140.149 165.268 139.719 165.624C139.301 165.965 138.741 166.175 138.038 166.253C137.786 166.281 137.499 166.286 137.175 166.268C136.865 166.262 136.534 166.238 136.181 166.197ZM162.136 163.321L160.942 152.547L164.699 152.13L165.893 162.904L162.136 163.321ZM156.124 156.461C157.556 156.316 158.658 156.516 159.43 157.061C160.214 157.604 160.671 158.452 160.798 159.605C160.93 160.798 160.624 161.785 159.879 162.565C159.132 163.332 157.996 163.793 156.47 163.949L150.785 164.579L149.591 153.804L153.348 153.388L153.718 156.728L156.124 156.461ZM155.806 161.406C156.257 161.356 156.596 161.211 156.825 160.971C157.053 160.731 157.143 160.393 157.094 159.955C157.044 159.505 156.883 159.201 156.611 159.043C156.352 158.884 155.99 158.824 155.524 158.862L153.974 159.034L154.254 161.558L155.806 161.406Z" fill="#D4D4D4"/>
<defs>
<linearGradient id="paint0_linear_242_85" x1="355" y1="74.5" x2="14" y2="125.5" gradientUnits="userSpaceOnUse">
<stop stop-color="#FB852F"/>
<stop offset="1" stop-color="#E44630"/>
</linearGradient>
</defs>
</svg>
