<svg width="153" height="20" viewBox="0 0 153 20" fill="none" xmlns="http://www.w3.org/2000/svg">
<g filter="url(#filter0_d_26_19)">
<mask id="path-1-outside-1_26_19" maskUnits="userSpaceOnUse" x="1" y="1" width="149" height="16" fill="black">
<rect fill="white" x="1" y="1" width="149" height="16"/>
<path d="M1.66 16V2H4.34L12.6 12.08H11.3V2H14.5V16H11.84L3.56 5.92H4.86V16H1.66ZM24.6123 16.24C23.5057 16.24 22.479 16.06 21.5323 15.7C20.599 15.34 19.7857 14.8333 19.0923 14.18C18.4123 13.5267 17.879 12.76 17.4923 11.88C17.119 11 16.9323 10.04 16.9323 9C16.9323 7.96 17.119 7 17.4923 6.12C17.879 5.24 18.419 4.47333 19.1123 3.82C19.8057 3.16667 20.619 2.66 21.5523 2.3C22.4857 1.94 23.499 1.76 24.5923 1.76C25.699 1.76 26.7123 1.94 27.6323 2.3C28.5657 2.66 29.3723 3.16667 30.0523 3.82C30.7457 4.47333 31.2857 5.24 31.6723 6.12C32.059 6.98667 32.2523 7.94667 32.2523 9C32.2523 10.04 32.059 11.0067 31.6723 11.9C31.2857 12.78 30.7457 13.5467 30.0523 14.2C29.3723 14.84 28.5657 15.34 27.6323 15.7C26.7123 16.06 25.7057 16.24 24.6123 16.24ZM24.5923 13.48C25.219 13.48 25.7923 13.3733 26.3123 13.16C26.8457 12.9467 27.3123 12.64 27.7123 12.24C28.1123 11.84 28.419 11.3667 28.6323 10.82C28.859 10.2733 28.9723 9.66667 28.9723 9C28.9723 8.33333 28.859 7.72667 28.6323 7.18C28.419 6.63333 28.1123 6.16 27.7123 5.76C27.3257 5.36 26.8657 5.05333 26.3323 4.84C25.799 4.62667 25.219 4.52 24.5923 4.52C23.9657 4.52 23.3857 4.62667 22.8523 4.84C22.3323 5.05333 21.8723 5.36 21.4723 5.76C21.0723 6.16 20.759 6.63333 20.5323 7.18C20.319 7.72667 20.2123 8.33333 20.2123 9C20.2123 9.65333 20.319 10.26 20.5323 10.82C20.759 11.3667 21.0657 11.84 21.4523 12.24C21.8523 12.64 22.319 12.9467 22.8523 13.16C23.3857 13.3733 23.9657 13.48 24.5923 13.48ZM37.392 16V4.64H32.912V2H45.112V4.64H40.632V16H37.392Z"/>
<path d="M44.3122 16L50.5522 2H53.7522L60.0122 16H56.6122L51.4922 3.64H52.7722L47.6322 16H44.3122ZM47.4322 13L48.2922 10.54H55.4922L56.3722 13H47.4322Z"/>
<path d="M66.0647 16.24C64.9447 16.24 63.8714 16.0933 62.8447 15.8C61.818 15.4933 60.9914 15.1 60.3647 14.62L61.4647 12.18C62.0647 12.6067 62.7714 12.96 63.5847 13.24C64.4114 13.5067 65.2447 13.64 66.0847 13.64C66.7247 13.64 67.238 13.58 67.6247 13.46C68.0247 13.3267 68.318 13.1467 68.5047 12.92C68.6914 12.6933 68.7847 12.4333 68.7847 12.14C68.7847 11.7667 68.638 11.4733 68.3447 11.26C68.0514 11.0333 67.6647 10.8533 67.1847 10.72C66.7047 10.5733 66.1714 10.44 65.5847 10.32C65.0114 10.1867 64.4314 10.0267 63.8447 9.84C63.2714 9.65333 62.7447 9.41333 62.2647 9.12C61.7847 8.82667 61.3914 8.44 61.0847 7.96C60.7914 7.48 60.6447 6.86667 60.6447 6.12C60.6447 5.32 60.858 4.59333 61.2847 3.94C61.7247 3.27333 62.378 2.74667 63.2447 2.36C64.1247 1.96 65.2247 1.76 66.5447 1.76C67.4247 1.76 68.2914 1.86667 69.1447 2.08C69.998 2.28 70.7514 2.58667 71.4047 3L70.4047 5.46C69.7514 5.08667 69.098 4.81333 68.4447 4.64C67.7914 4.45333 67.1514 4.36 66.5247 4.36C65.898 4.36 65.3847 4.43333 64.9847 4.58C64.5847 4.72667 64.298 4.92 64.1247 5.16C63.9514 5.38667 63.8647 5.65333 63.8647 5.96C63.8647 6.32 64.0114 6.61333 64.3047 6.84C64.598 7.05333 64.9847 7.22667 65.4647 7.36C65.9447 7.49333 66.4714 7.62667 67.0447 7.76C67.6314 7.89333 68.2114 8.04667 68.7847 8.22C69.3714 8.39333 69.9047 8.62667 70.3847 8.92C70.8647 9.21333 71.2514 9.6 71.5447 10.08C71.8514 10.56 72.0047 11.1667 72.0047 11.9C72.0047 12.6867 71.7847 13.4067 71.3447 14.06C70.9047 14.7133 70.2447 15.24 69.3647 15.64C68.498 16.04 67.398 16.24 66.0647 16.24ZM80.9186 16.24C79.8386 16.24 78.8319 16.0667 77.8986 15.72C76.9786 15.36 76.1786 14.8533 75.4986 14.2C74.8186 13.5467 74.2853 12.78 73.8986 11.9C73.5253 11.02 73.3386 10.0533 73.3386 9C73.3386 7.94667 73.5253 6.98 73.8986 6.1C74.2853 5.22 74.8186 4.45333 75.4986 3.8C76.1919 3.14667 76.9986 2.64667 77.9186 2.3C78.8386 1.94 79.8453 1.76 80.9386 1.76C82.1519 1.76 83.2453 1.97333 84.2186 2.4C85.2053 2.81333 86.0319 3.42667 86.6986 4.24L84.6186 6.16C84.1386 5.61333 83.6053 5.20667 83.0186 4.94C82.4319 4.66 81.7919 4.52 81.0986 4.52C80.4453 4.52 79.8453 4.62667 79.2986 4.84C78.7519 5.05333 78.2786 5.36 77.8786 5.76C77.4786 6.16 77.1653 6.63333 76.9386 7.18C76.7253 7.72667 76.6186 8.33333 76.6186 9C76.6186 9.66667 76.7253 10.2733 76.9386 10.82C77.1653 11.3667 77.4786 11.84 77.8786 12.24C78.2786 12.64 78.7519 12.9467 79.2986 13.16C79.8453 13.3733 80.4453 13.48 81.0986 13.48C81.7919 13.48 82.4319 13.3467 83.0186 13.08C83.6053 12.8 84.1386 12.38 84.6186 11.82L86.6986 13.74C86.0319 14.5533 85.2053 15.1733 84.2186 15.6C83.2453 16.0267 82.1453 16.24 80.9186 16.24ZM98.4866 2H101.727V16H98.4866V2ZM92.1266 16H88.8866V2H92.1266V16ZM98.7266 10.26H91.8866V7.52H98.7266V10.26ZM111.839 16.24C110.732 16.24 109.706 16.06 108.759 15.7C107.826 15.34 107.012 14.8333 106.319 14.18C105.639 13.5267 105.106 12.76 104.719 11.88C104.346 11 104.159 10.04 104.159 9C104.159 7.96 104.346 7 104.719 6.12C105.106 5.24 105.646 4.47333 106.339 3.82C107.032 3.16667 107.846 2.66 108.779 2.3C109.712 1.94 110.726 1.76 111.819 1.76C112.926 1.76 113.939 1.94 114.859 2.3C115.792 2.66 116.599 3.16667 117.279 3.82C117.972 4.47333 118.512 5.24 118.899 6.12C119.286 6.98667 119.479 7.94667 119.479 9C119.479 10.04 119.286 11.0067 118.899 11.9C118.512 12.78 117.972 13.5467 117.279 14.2C116.599 14.84 115.792 15.34 114.859 15.7C113.939 16.06 112.932 16.24 111.839 16.24ZM111.819 13.48C112.446 13.48 113.019 13.3733 113.539 13.16C114.072 12.9467 114.539 12.64 114.939 12.24C115.339 11.84 115.646 11.3667 115.859 10.82C116.086 10.2733 116.199 9.66667 116.199 9C116.199 8.33333 116.086 7.72667 115.859 7.18C115.646 6.63333 115.339 6.16 114.939 5.76C114.552 5.36 114.092 5.05333 113.559 4.84C113.026 4.62667 112.446 4.52 111.819 4.52C111.192 4.52 110.612 4.62667 110.079 4.84C109.559 5.05333 109.099 5.36 108.699 5.76C108.299 6.16 107.986 6.63333 107.759 7.18C107.546 7.72667 107.439 8.33333 107.439 9C107.439 9.65333 107.546 10.26 107.759 10.82C107.986 11.3667 108.292 11.84 108.679 12.24C109.079 12.64 109.546 12.9467 110.079 13.16C110.612 13.3733 111.192 13.48 111.819 13.48ZM128.714 16.24C127.607 16.24 126.581 16.06 125.634 15.7C124.701 15.34 123.887 14.8333 123.194 14.18C122.514 13.5267 121.981 12.76 121.594 11.88C121.221 11 121.034 10.04 121.034 9C121.034 7.96 121.221 7 121.594 6.12C121.981 5.24 122.521 4.47333 123.214 3.82C123.907 3.16667 124.721 2.66 125.654 2.3C126.587 1.94 127.601 1.76 128.694 1.76C129.801 1.76 130.814 1.94 131.734 2.3C132.667 2.66 133.474 3.16667 134.154 3.82C134.847 4.47333 135.387 5.24 135.774 6.12C136.161 6.98667 136.354 7.94667 136.354 9C136.354 10.04 136.161 11.0067 135.774 11.9C135.387 12.78 134.847 13.5467 134.154 14.2C133.474 14.84 132.667 15.34 131.734 15.7C130.814 16.06 129.807 16.24 128.714 16.24ZM128.694 13.48C129.321 13.48 129.894 13.3733 130.414 13.16C130.947 12.9467 131.414 12.64 131.814 12.24C132.214 11.84 132.521 11.3667 132.734 10.82C132.961 10.2733 133.074 9.66667 133.074 9C133.074 8.33333 132.961 7.72667 132.734 7.18C132.521 6.63333 132.214 6.16 131.814 5.76C131.427 5.36 130.967 5.05333 130.434 4.84C129.901 4.62667 129.321 4.52 128.694 4.52C128.067 4.52 127.487 4.62667 126.954 4.84C126.434 5.05333 125.974 5.36 125.574 5.76C125.174 6.16 124.861 6.63333 124.634 7.18C124.421 7.72667 124.314 8.33333 124.314 9C124.314 9.65333 124.421 10.26 124.634 10.82C124.861 11.3667 125.167 11.84 125.554 12.24C125.954 12.64 126.421 12.9467 126.954 13.16C127.487 13.3733 128.067 13.48 128.694 13.48ZM138.789 16V2H142.029V13.36H149.049V16H138.789Z"/>
</mask>
<path d="M1.66 16V2H4.34L12.6 12.08H11.3V2H14.5V16H11.84L3.56 5.92H4.86V16H1.66ZM24.6123 16.24C23.5057 16.24 22.479 16.06 21.5323 15.7C20.599 15.34 19.7857 14.8333 19.0923 14.18C18.4123 13.5267 17.879 12.76 17.4923 11.88C17.119 11 16.9323 10.04 16.9323 9C16.9323 7.96 17.119 7 17.4923 6.12C17.879 5.24 18.419 4.47333 19.1123 3.82C19.8057 3.16667 20.619 2.66 21.5523 2.3C22.4857 1.94 23.499 1.76 24.5923 1.76C25.699 1.76 26.7123 1.94 27.6323 2.3C28.5657 2.66 29.3723 3.16667 30.0523 3.82C30.7457 4.47333 31.2857 5.24 31.6723 6.12C32.059 6.98667 32.2523 7.94667 32.2523 9C32.2523 10.04 32.059 11.0067 31.6723 11.9C31.2857 12.78 30.7457 13.5467 30.0523 14.2C29.3723 14.84 28.5657 15.34 27.6323 15.7C26.7123 16.06 25.7057 16.24 24.6123 16.24ZM24.5923 13.48C25.219 13.48 25.7923 13.3733 26.3123 13.16C26.8457 12.9467 27.3123 12.64 27.7123 12.24C28.1123 11.84 28.419 11.3667 28.6323 10.82C28.859 10.2733 28.9723 9.66667 28.9723 9C28.9723 8.33333 28.859 7.72667 28.6323 7.18C28.419 6.63333 28.1123 6.16 27.7123 5.76C27.3257 5.36 26.8657 5.05333 26.3323 4.84C25.799 4.62667 25.219 4.52 24.5923 4.52C23.9657 4.52 23.3857 4.62667 22.8523 4.84C22.3323 5.05333 21.8723 5.36 21.4723 5.76C21.0723 6.16 20.759 6.63333 20.5323 7.18C20.319 7.72667 20.2123 8.33333 20.2123 9C20.2123 9.65333 20.319 10.26 20.5323 10.82C20.759 11.3667 21.0657 11.84 21.4523 12.24C21.8523 12.64 22.319 12.9467 22.8523 13.16C23.3857 13.3733 23.9657 13.48 24.5923 13.48ZM37.392 16V4.64H32.912V2H45.112V4.64H40.632V16H37.392Z" fill="#8F8E8E"/>
<path d="M44.3122 16L50.5522 2H53.7522L60.0122 16H56.6122L51.4922 3.64H52.7722L47.6322 16H44.3122ZM47.4322 13L48.2922 10.54H55.4922L56.3722 13H47.4322Z" fill="#FF4A4A"/>
<path d="M66.0647 16.24C64.9447 16.24 63.8714 16.0933 62.8447 15.8C61.818 15.4933 60.9914 15.1 60.3647 14.62L61.4647 12.18C62.0647 12.6067 62.7714 12.96 63.5847 13.24C64.4114 13.5067 65.2447 13.64 66.0847 13.64C66.7247 13.64 67.238 13.58 67.6247 13.46C68.0247 13.3267 68.318 13.1467 68.5047 12.92C68.6914 12.6933 68.7847 12.4333 68.7847 12.14C68.7847 11.7667 68.638 11.4733 68.3447 11.26C68.0514 11.0333 67.6647 10.8533 67.1847 10.72C66.7047 10.5733 66.1714 10.44 65.5847 10.32C65.0114 10.1867 64.4314 10.0267 63.8447 9.84C63.2714 9.65333 62.7447 9.41333 62.2647 9.12C61.7847 8.82667 61.3914 8.44 61.0847 7.96C60.7914 7.48 60.6447 6.86667 60.6447 6.12C60.6447 5.32 60.858 4.59333 61.2847 3.94C61.7247 3.27333 62.378 2.74667 63.2447 2.36C64.1247 1.96 65.2247 1.76 66.5447 1.76C67.4247 1.76 68.2914 1.86667 69.1447 2.08C69.998 2.28 70.7514 2.58667 71.4047 3L70.4047 5.46C69.7514 5.08667 69.098 4.81333 68.4447 4.64C67.7914 4.45333 67.1514 4.36 66.5247 4.36C65.898 4.36 65.3847 4.43333 64.9847 4.58C64.5847 4.72667 64.298 4.92 64.1247 5.16C63.9514 5.38667 63.8647 5.65333 63.8647 5.96C63.8647 6.32 64.0114 6.61333 64.3047 6.84C64.598 7.05333 64.9847 7.22667 65.4647 7.36C65.9447 7.49333 66.4714 7.62667 67.0447 7.76C67.6314 7.89333 68.2114 8.04667 68.7847 8.22C69.3714 8.39333 69.9047 8.62667 70.3847 8.92C70.8647 9.21333 71.2514 9.6 71.5447 10.08C71.8514 10.56 72.0047 11.1667 72.0047 11.9C72.0047 12.6867 71.7847 13.4067 71.3447 14.06C70.9047 14.7133 70.2447 15.24 69.3647 15.64C68.498 16.04 67.398 16.24 66.0647 16.24ZM80.9186 16.24C79.8386 16.24 78.8319 16.0667 77.8986 15.72C76.9786 15.36 76.1786 14.8533 75.4986 14.2C74.8186 13.5467 74.2853 12.78 73.8986 11.9C73.5253 11.02 73.3386 10.0533 73.3386 9C73.3386 7.94667 73.5253 6.98 73.8986 6.1C74.2853 5.22 74.8186 4.45333 75.4986 3.8C76.1919 3.14667 76.9986 2.64667 77.9186 2.3C78.8386 1.94 79.8453 1.76 80.9386 1.76C82.1519 1.76 83.2453 1.97333 84.2186 2.4C85.2053 2.81333 86.0319 3.42667 86.6986 4.24L84.6186 6.16C84.1386 5.61333 83.6053 5.20667 83.0186 4.94C82.4319 4.66 81.7919 4.52 81.0986 4.52C80.4453 4.52 79.8453 4.62667 79.2986 4.84C78.7519 5.05333 78.2786 5.36 77.8786 5.76C77.4786 6.16 77.1653 6.63333 76.9386 7.18C76.7253 7.72667 76.6186 8.33333 76.6186 9C76.6186 9.66667 76.7253 10.2733 76.9386 10.82C77.1653 11.3667 77.4786 11.84 77.8786 12.24C78.2786 12.64 78.7519 12.9467 79.2986 13.16C79.8453 13.3733 80.4453 13.48 81.0986 13.48C81.7919 13.48 82.4319 13.3467 83.0186 13.08C83.6053 12.8 84.1386 12.38 84.6186 11.82L86.6986 13.74C86.0319 14.5533 85.2053 15.1733 84.2186 15.6C83.2453 16.0267 82.1453 16.24 80.9186 16.24ZM98.4866 2H101.727V16H98.4866V2ZM92.1266 16H88.8866V2H92.1266V16ZM98.7266 10.26H91.8866V7.52H98.7266V10.26ZM111.839 16.24C110.732 16.24 109.706 16.06 108.759 15.7C107.826 15.34 107.012 14.8333 106.319 14.18C105.639 13.5267 105.106 12.76 104.719 11.88C104.346 11 104.159 10.04 104.159 9C104.159 7.96 104.346 7 104.719 6.12C105.106 5.24 105.646 4.47333 106.339 3.82C107.032 3.16667 107.846 2.66 108.779 2.3C109.712 1.94 110.726 1.76 111.819 1.76C112.926 1.76 113.939 1.94 114.859 2.3C115.792 2.66 116.599 3.16667 117.279 3.82C117.972 4.47333 118.512 5.24 118.899 6.12C119.286 6.98667 119.479 7.94667 119.479 9C119.479 10.04 119.286 11.0067 118.899 11.9C118.512 12.78 117.972 13.5467 117.279 14.2C116.599 14.84 115.792 15.34 114.859 15.7C113.939 16.06 112.932 16.24 111.839 16.24ZM111.819 13.48C112.446 13.48 113.019 13.3733 113.539 13.16C114.072 12.9467 114.539 12.64 114.939 12.24C115.339 11.84 115.646 11.3667 115.859 10.82C116.086 10.2733 116.199 9.66667 116.199 9C116.199 8.33333 116.086 7.72667 115.859 7.18C115.646 6.63333 115.339 6.16 114.939 5.76C114.552 5.36 114.092 5.05333 113.559 4.84C113.026 4.62667 112.446 4.52 111.819 4.52C111.192 4.52 110.612 4.62667 110.079 4.84C109.559 5.05333 109.099 5.36 108.699 5.76C108.299 6.16 107.986 6.63333 107.759 7.18C107.546 7.72667 107.439 8.33333 107.439 9C107.439 9.65333 107.546 10.26 107.759 10.82C107.986 11.3667 108.292 11.84 108.679 12.24C109.079 12.64 109.546 12.9467 110.079 13.16C110.612 13.3733 111.192 13.48 111.819 13.48ZM128.714 16.24C127.607 16.24 126.581 16.06 125.634 15.7C124.701 15.34 123.887 14.8333 123.194 14.18C122.514 13.5267 121.981 12.76 121.594 11.88C121.221 11 121.034 10.04 121.034 9C121.034 7.96 121.221 7 121.594 6.12C121.981 5.24 122.521 4.47333 123.214 3.82C123.907 3.16667 124.721 2.66 125.654 2.3C126.587 1.94 127.601 1.76 128.694 1.76C129.801 1.76 130.814 1.94 131.734 2.3C132.667 2.66 133.474 3.16667 134.154 3.82C134.847 4.47333 135.387 5.24 135.774 6.12C136.161 6.98667 136.354 7.94667 136.354 9C136.354 10.04 136.161 11.0067 135.774 11.9C135.387 12.78 134.847 13.5467 134.154 14.2C133.474 14.84 132.667 15.34 131.734 15.7C130.814 16.06 129.807 16.24 128.714 16.24ZM128.694 13.48C129.321 13.48 129.894 13.3733 130.414 13.16C130.947 12.9467 131.414 12.64 131.814 12.24C132.214 11.84 132.521 11.3667 132.734 10.82C132.961 10.2733 133.074 9.66667 133.074 9C133.074 8.33333 132.961 7.72667 132.734 7.18C132.521 6.63333 132.214 6.16 131.814 5.76C131.427 5.36 130.967 5.05333 130.434 4.84C129.901 4.62667 129.321 4.52 128.694 4.52C128.067 4.52 127.487 4.62667 126.954 4.84C126.434 5.05333 125.974 5.36 125.574 5.76C125.174 6.16 124.861 6.63333 124.634 7.18C124.421 7.72667 124.314 8.33333 124.314 9C124.314 9.65333 124.421 10.26 124.634 10.82C124.861 11.3667 125.167 11.84 125.554 12.24C125.954 12.64 126.421 12.9467 126.954 13.16C127.487 13.3733 128.067 13.48 128.694 13.48ZM138.789 16V2H142.029V13.36H149.049V16H138.789Z" fill="#D3D3D3"/>
<path d="M1.66 16H1.16V16.5H1.66V16ZM1.66 2V1.5H1.16V2H1.66ZM4.34 2L4.72674 1.68309L4.57671 1.5H4.34V2ZM12.6 12.08V12.58H13.6562L12.9867 11.7631L12.6 12.08ZM11.3 12.08H10.8V12.58H11.3V12.08ZM11.3 2V1.5H10.8V2H11.3ZM14.5 2H15V1.5H14.5V2ZM14.5 16V16.5H15V16H14.5ZM11.84 16L11.4536 16.3174L11.6037 16.5H11.84V16ZM3.56 5.92V5.42H2.50223L3.17364 6.23737L3.56 5.92ZM4.86 5.92H5.36V5.42H4.86V5.92ZM4.86 16V16.5H5.36V16H4.86ZM2.16 16V2H1.16V16H2.16ZM1.66 2.5H4.34V1.5H1.66V2.5ZM3.95326 2.31691L12.2133 12.3969L12.9867 11.7631L4.72674 1.68309L3.95326 2.31691ZM12.6 11.58H11.3V12.58H12.6V11.58ZM11.8 12.08V2H10.8V12.08H11.8ZM11.3 2.5H14.5V1.5H11.3V2.5ZM14 2V16H15V2H14ZM14.5 15.5H11.84V16.5H14.5V15.5ZM12.2264 15.6826L3.94636 5.60263L3.17364 6.23737L11.4536 16.3174L12.2264 15.6826ZM3.56 6.42H4.86V5.42H3.56V6.42ZM4.36 5.92V16H5.36V5.92H4.36ZM4.86 15.5H1.66V16.5H4.86V15.5ZM21.5323 15.7L21.3524 16.1665L21.3546 16.1673L21.5323 15.7ZM19.0923 14.18L18.7459 14.5406L18.7494 14.5439L19.0923 14.18ZM17.4923 11.88L17.032 12.0753L17.0346 12.0811L17.4923 11.88ZM17.4923 6.12L17.0345 5.91885L17.0321 5.92472L17.4923 6.12ZM21.5523 2.3L21.3724 1.8335L21.5523 2.3ZM27.6323 2.3L27.4501 2.76563L27.4524 2.7665L27.6323 2.3ZM30.0523 3.82L29.7059 4.18057L29.7094 4.18389L30.0523 3.82ZM31.6723 6.12L31.2146 6.32114L31.2157 6.32372L31.6723 6.12ZM31.6723 11.9L32.1301 12.1011L32.1312 12.0986L31.6723 11.9ZM30.0523 14.2L30.395 14.5641L30.3952 14.5639L30.0523 14.2ZM27.6323 15.7L27.4524 15.2335L27.4501 15.2344L27.6323 15.7ZM26.3123 13.16L26.1266 12.6957L26.1226 12.6974L26.3123 13.16ZM27.7123 12.24L27.3588 11.8864L27.3588 11.8864L27.7123 12.24ZM28.6323 10.82L28.1704 10.6285L28.1666 10.6382L28.6323 10.82ZM28.6323 7.18L28.1665 7.36181L28.1705 7.37151L28.6323 7.18ZM27.7123 5.76L27.3528 6.10756L27.3588 6.11355L27.7123 5.76ZM26.3323 4.84L26.1466 5.30424L26.3323 4.84ZM22.8523 4.84L22.6666 4.37574L22.6626 4.37742L22.8523 4.84ZM21.4723 5.76L21.8259 6.11355L21.4723 5.76ZM20.5323 7.18L20.0704 6.98845L20.0666 6.99823L20.5323 7.18ZM20.5323 10.82L20.0651 10.998L20.0677 11.0048L20.0705 11.0115L20.5323 10.82ZM21.4523 12.24L21.0928 12.5876L21.0988 12.5936L21.4523 12.24ZM22.8523 13.16L22.6666 13.6242L22.8523 13.16ZM24.6123 15.74C23.5608 15.74 22.5949 15.5691 21.7101 15.2327L21.3546 16.1673C22.3631 16.5509 23.4506 16.74 24.6123 16.74V15.74ZM21.7123 15.2335C20.8363 14.8956 20.0791 14.4228 19.4352 13.8161L18.7494 14.5439C19.4923 15.2439 20.3617 15.7844 21.3524 16.1665L21.7123 15.2335ZM19.4388 13.8194C18.8069 13.2123 18.311 12.5001 17.9501 11.6789L17.0346 12.0811C17.4471 13.0199 18.0178 13.841 18.7459 14.5406L19.4388 13.8194ZM17.9526 11.6847C17.6077 10.8717 17.4323 9.97885 17.4323 9H16.4323C16.4323 10.1011 16.6303 11.1283 17.0321 12.0753L17.9526 11.6847ZM17.4323 9C17.4323 8.02115 17.6077 7.12825 17.9526 6.31527L17.0321 5.92472C16.6303 6.87174 16.4323 7.89885 16.4323 9H17.4323ZM17.9501 6.32114C18.31 5.50198 18.8112 4.79081 19.4552 4.18389L18.7694 3.45611C18.0268 4.15586 17.448 4.97802 17.0346 5.91886L17.9501 6.32114ZM19.4552 4.18389C20.0991 3.5772 20.8563 3.10437 21.7323 2.7665L21.3724 1.8335C20.3817 2.21563 19.5123 2.75613 18.7694 3.45611L19.4552 4.18389ZM21.7323 2.7665C22.6031 2.43062 23.5548 2.26 24.5923 2.26V1.26C23.4432 1.26 22.3683 1.44938 21.3724 1.8335L21.7323 2.7665ZM24.5923 2.26C25.6441 2.26 26.5948 2.43091 27.4501 2.76562L27.8145 1.83438C26.8299 1.44909 25.7539 1.26 24.5923 1.26V2.26ZM27.4524 2.7665C28.3276 3.10407 29.0767 3.576 29.7059 4.18055L30.3988 3.45945C29.668 2.75733 28.8038 2.21593 27.8123 1.8335L27.4524 2.7665ZM29.7094 4.18389C30.3535 4.79081 30.8547 5.50198 31.2146 6.32114L32.1301 5.91886C31.7167 4.97802 31.1378 4.15586 30.3952 3.45611L29.7094 4.18389ZM31.2157 6.32372C31.5708 7.11955 31.7523 8.00911 31.7523 9H32.7523C32.7523 7.88423 32.5472 6.85378 32.129 5.91628L31.2157 6.32372ZM31.7523 9C31.7523 9.97642 31.5712 10.875 31.2135 11.7014L32.1312 12.0986C32.5468 11.1384 32.7523 10.1036 32.7523 9H31.7523ZM31.2146 11.6989C30.8547 12.518 30.3535 13.2292 29.7094 13.8361L30.3952 14.5639C31.1378 13.8641 31.7167 13.042 32.1301 12.1011L31.2146 11.6989ZM29.7097 13.8359C29.0801 14.4285 28.3297 14.8951 27.4524 15.2335L27.8123 16.1665C28.8016 15.7849 29.6646 15.2515 30.395 14.5641L29.7097 13.8359ZM27.4501 15.2344C26.5941 15.5694 25.65 15.74 24.6123 15.74V16.74C25.7614 16.74 26.8306 16.5506 27.8145 16.1656L27.4501 15.2344ZM24.5923 13.98C25.2766 13.98 25.9153 13.8633 26.5021 13.6226L26.1226 12.6974C25.6693 12.8834 25.1614 12.98 24.5923 12.98V13.98ZM26.498 13.6242C27.0932 13.3862 27.6173 13.0422 28.0659 12.5936L27.3588 11.8864C27.0074 12.2378 26.5981 12.5072 26.1266 12.6958L26.498 13.6242ZM28.0659 12.5936C28.5166 12.1428 28.8606 11.6104 29.0981 11.0018L28.1666 10.6382C27.9774 11.123 27.7081 11.5372 27.3588 11.8864L28.0659 12.5936ZM29.0942 11.0115C29.349 10.3969 29.4723 9.7241 29.4723 9H28.4723C28.4723 9.60924 28.369 10.1498 28.1705 10.6285L29.0942 11.0115ZM29.4723 9C29.4723 8.2759 29.349 7.60308 29.0942 6.98849L28.1705 7.37151C28.369 7.85025 28.4723 8.39076 28.4723 9H29.4723ZM29.0981 6.99823C28.8606 6.38962 28.5166 5.85717 28.0659 5.40645L27.3588 6.11355C27.7081 6.46283 27.9774 6.87705 28.1666 7.36177L29.0981 6.99823ZM28.0718 5.41249C27.6345 4.96009 27.1147 4.61443 26.518 4.37576L26.1466 5.30424C26.6166 5.49224 27.0168 5.75991 27.3528 6.10751L28.0718 5.41249ZM26.518 4.37576C25.9205 4.13674 25.2768 4.02 24.5923 4.02V5.02C25.1612 5.02 25.6775 5.1166 26.1466 5.30424L26.518 4.37576ZM24.5923 4.02C23.9079 4.02 23.2642 4.13674 22.6666 4.37576L23.038 5.30424C23.5071 5.1166 24.0235 5.02 24.5923 5.02V4.02ZM22.6626 4.37742C22.0809 4.61605 21.5653 4.95992 21.1188 5.40645L21.8259 6.11355C22.1794 5.76007 22.5838 5.49061 23.0421 5.30258L22.6626 4.37742ZM21.1188 5.40645C20.6703 5.85496 20.3211 6.38407 20.0705 6.98849L20.9942 7.37151C21.1969 6.88259 21.4744 6.46504 21.8259 6.11355L21.1188 5.40645ZM20.0666 6.99823C19.8278 7.61017 19.7123 8.27953 19.7123 9H20.7123C20.7123 8.38713 20.8103 7.84317 20.9981 7.36177L20.0666 6.99823ZM19.7123 9C19.7123 9.70866 19.8282 10.3762 20.0651 10.998L20.9996 10.642C20.8098 10.1438 20.7123 9.598 20.7123 9H19.7123ZM20.0705 11.0115C20.3196 11.6124 20.6598 12.1396 21.0928 12.5875L21.8118 11.8925C21.4715 11.5404 21.1984 11.1209 20.9942 10.6285L20.0705 11.0115ZM21.0988 12.5936C21.5474 13.0422 22.0714 13.3862 22.6666 13.6242L23.038 12.6958C22.5666 12.5072 22.1573 12.2378 21.8059 11.8864L21.0988 12.5936ZM22.6666 13.6242C23.2642 13.8633 23.9079 13.98 24.5923 13.98V12.98C24.0235 12.98 23.5071 12.8834 23.038 12.6958L22.6666 13.6242ZM37.392 16H36.892V16.5H37.392V16ZM37.392 4.64H37.892V4.14H37.392V4.64ZM32.912 4.64H32.412V5.14H32.912V4.64ZM32.912 2V1.5H32.412V2H32.912ZM45.112 2H45.612V1.5H45.112V2ZM45.112 4.64V5.14H45.612V4.64H45.112ZM40.632 4.64V4.14H40.132V4.64H40.632ZM40.632 16V16.5H41.132V16H40.632ZM37.892 16V4.64H36.892V16H37.892ZM37.392 4.14H32.912V5.14H37.392V4.14ZM33.412 4.64V2H32.412V4.64H33.412ZM32.912 2.5H45.112V1.5H32.912V2.5ZM44.612 2V4.64H45.612V2H44.612ZM45.112 4.14H40.632V5.14H45.112V4.14ZM40.132 4.64V16H41.132V4.64H40.132ZM40.632 15.5H37.392V16.5H40.632V15.5ZM44.3122 16L43.8555 15.7964L43.5419 16.5H44.3122V16ZM50.5522 2V1.5H50.2276L50.0955 1.79645L50.5522 2ZM53.7522 2L54.2086 1.7959L54.0763 1.5H53.7522V2ZM60.0122 16V16.5H60.7835L60.4686 15.7959L60.0122 16ZM56.6122 16L56.1503 16.1914L56.2781 16.5H56.6122V16ZM51.4922 3.64V3.14H50.7439L51.0303 3.83135L51.4922 3.64ZM52.7722 3.64L53.2339 3.83199L53.5216 3.14H52.7722V3.64ZM47.6322 16V16.5H47.9658L48.0939 16.192L47.6322 16ZM47.4322 13L46.9602 12.835L46.7277 13.5H47.4322V13ZM48.2922 10.54V10.04H47.9373L47.8202 10.375L48.2922 10.54ZM55.4922 10.54L55.963 10.3716L55.8444 10.04H55.4922V10.54ZM56.3722 13V13.5H57.0821L56.843 12.8316L56.3722 13ZM44.7689 16.2036L51.0089 2.20355L50.0955 1.79645L43.8555 15.7964L44.7689 16.2036ZM50.5522 2.5H53.7522V1.5H50.5522V2.5ZM53.2957 2.2041L59.5557 16.2041L60.4686 15.7959L54.2086 1.7959L53.2957 2.2041ZM60.0122 15.5H56.6122V16.5H60.0122V15.5ZM57.0741 15.8086L51.9541 3.44865L51.0303 3.83135L56.1503 16.1914L57.0741 15.8086ZM51.4922 4.14H52.7722V3.14H51.4922V4.14ZM52.3105 3.44801L47.1705 15.808L48.0939 16.192L53.2339 3.83199L52.3105 3.44801ZM47.6322 15.5H44.3122V16.5H47.6322V15.5ZM47.9042 13.165L48.7642 10.705L47.8202 10.375L46.9602 12.835L47.9042 13.165ZM48.2922 11.04H55.4922V10.04H48.2922V11.04ZM55.0214 10.7084L55.9014 13.1684L56.843 12.8316L55.963 10.3716L55.0214 10.7084ZM56.3722 12.5H47.4322V13.5H56.3722V12.5ZM62.8447 15.8L62.7016 16.2791L62.7073 16.2808L62.8447 15.8ZM60.3647 14.62L59.9089 14.4145L59.7459 14.7759L60.0606 15.0169L60.3647 14.62ZM61.4647 12.18L61.7544 11.7725L61.2588 11.4201L61.0089 11.9745L61.4647 12.18ZM63.5847 13.24L63.4219 13.7129L63.4312 13.7159L63.5847 13.24ZM67.6247 13.46L67.7729 13.9376L67.7828 13.9343L67.6247 13.46ZM68.5047 12.92L68.1187 12.6021L68.5047 12.92ZM68.3447 11.26L68.039 11.6556L68.0447 11.6601L68.0506 11.6644L68.3447 11.26ZM67.1847 10.72L67.0385 11.1983L67.0509 11.2018L67.1847 10.72ZM65.5847 10.32L65.4714 10.8072L65.4845 10.8099L65.5847 10.32ZM63.8447 9.84L63.6899 10.3154L63.6931 10.3165L63.8447 9.84ZM62.2647 9.12L62.004 9.54664L62.2647 9.12ZM61.0847 7.96L60.658 8.22078L60.6633 8.22919L61.0847 7.96ZM61.2847 3.94L60.8674 3.66457L60.8661 3.6666L61.2847 3.94ZM63.2447 2.36L63.4484 2.81663L63.4516 2.81518L63.2447 2.36ZM69.1447 2.08L69.0234 2.56512L69.0306 2.56681L69.1447 2.08ZM71.4047 3L71.8679 3.18829L72.0253 2.80098L71.672 2.57746L71.4047 3ZM70.4047 5.46L70.1566 5.89412L70.6527 6.1776L70.8679 5.64829L70.4047 5.46ZM68.4447 4.64L68.3073 5.12085L68.3165 5.12328L68.4447 4.64ZM64.9847 4.58L64.8126 4.11056V4.11056L64.9847 4.58ZM64.1247 5.16L64.522 5.46384L64.53 5.45274L64.1247 5.16ZM64.3047 6.84L63.999 7.23564L64.0047 7.24009L64.0106 7.24437L64.3047 6.84ZM65.4647 7.36L65.3309 7.84176L65.4647 7.36ZM67.0447 7.76L66.9314 8.24701L66.9339 8.24757L67.0447 7.76ZM68.7847 8.22L68.64 8.69862L68.643 8.69951L68.7847 8.22ZM70.3847 8.92L70.6454 8.49336V8.49336L70.3847 8.92ZM71.5447 10.08L71.118 10.3408L71.1233 10.3492L71.5447 10.08ZM71.3447 14.06L71.7594 14.3393L71.3447 14.06ZM69.3647 15.64L69.1578 15.1848L69.1552 15.186L69.3647 15.64ZM66.0647 15.74C64.9889 15.74 63.9619 15.5992 62.982 15.3192L62.7073 16.2808C63.7808 16.5875 64.9005 16.74 66.0647 16.74V15.74ZM62.9878 15.3209C61.9999 15.0258 61.2333 14.6555 60.6687 14.2231L60.0606 15.0169C60.7494 15.5445 61.6362 15.9608 62.7016 16.2791L62.9878 15.3209ZM60.8205 14.8255L61.9205 12.3855L61.0089 11.9745L59.9089 14.4145L60.8205 14.8255ZM61.1749 12.5875C61.8198 13.0461 62.5708 13.4197 63.4219 13.7128L63.7474 12.7672C62.9719 12.5003 62.3095 12.1673 61.7544 11.7725L61.1749 12.5875ZM63.4312 13.7159C64.3057 13.998 65.1908 14.14 66.0847 14.14V13.14C65.2986 13.14 64.517 13.0154 63.7382 12.7641L63.4312 13.7159ZM66.0847 14.14C66.7494 14.14 67.3187 14.0785 67.7729 13.9375L67.4765 12.9825C67.1573 13.0815 66.7 13.14 66.0847 13.14V14.14ZM67.7828 13.9343C68.2351 13.7836 68.6236 13.5621 68.8907 13.2379L68.1187 12.6021C68.0124 12.7312 67.8143 12.8698 67.4666 12.9857L67.7828 13.9343ZM68.8907 13.2379C69.151 12.9218 69.2847 12.5494 69.2847 12.14H68.2847C68.2847 12.3172 68.2318 12.4649 68.1187 12.6021L68.8907 13.2379ZM69.2847 12.14C69.2847 11.6122 69.0659 11.1663 68.6388 10.8556L68.0506 11.6644C68.2101 11.7804 68.2847 11.9211 68.2847 12.14H69.2847ZM68.6504 10.8644C68.2916 10.5871 67.8407 10.3833 67.3185 10.2382L67.0509 11.2018C67.4887 11.3234 67.8111 11.4796 68.039 11.6556L68.6504 10.8644ZM67.3308 10.2418C66.8331 10.0898 66.2842 9.95273 65.6849 9.83014L65.4845 10.8099C66.0585 10.9273 66.5762 11.0569 67.0386 11.1982L67.3308 10.2418ZM65.6979 9.833C65.1381 9.7028 64.5709 9.54637 63.9963 9.36354L63.6931 10.3165C64.2918 10.507 64.8846 10.6705 65.4714 10.807L65.6979 9.833ZM63.9995 9.36456C63.4606 9.18911 62.9698 8.96495 62.5254 8.69336L62.004 9.54664C62.5195 9.86172 63.0821 10.1176 63.6899 10.3154L63.9995 9.36456ZM62.5254 8.69336C62.1111 8.44014 61.7723 8.10764 61.506 7.69081L60.6633 8.22919C61.0104 8.77236 61.4583 9.21319 62.004 9.54664L62.5254 8.69336ZM61.5113 7.69928C61.2792 7.3195 61.1447 6.80397 61.1447 6.12H60.1447C60.1447 6.92936 60.3035 7.6405 60.658 8.22073L61.5113 7.69928ZM61.1447 6.12C61.1447 5.4145 61.3312 4.78328 61.7033 4.21339L60.8661 3.6666C60.3849 4.40338 60.1447 5.2255 60.1447 6.12H61.1447ZM61.702 4.21542C62.0803 3.64217 62.6522 3.17186 63.4484 2.81661L63.041 1.90338C62.1039 2.32147 61.369 2.90449 60.8674 3.66458L61.702 4.21542ZM63.4516 2.81518C64.2474 2.45343 65.2715 2.26 66.5447 2.26V1.26C65.1779 1.26 64.0019 1.46657 63.0378 1.90482L63.4516 2.81518ZM66.5447 2.26C67.3838 2.26 68.2098 2.36166 69.0234 2.56507L69.266 1.59493C68.3729 1.37168 67.4656 1.26 66.5447 1.26V2.26ZM69.0306 2.56681C69.8368 2.75576 70.537 3.04272 71.1374 3.42254L71.672 2.57746C70.9657 2.13061 70.1593 1.80424 69.2588 1.59319L69.0306 2.56681ZM70.9415 2.81171L69.9415 5.27171L70.8679 5.64829L71.8679 3.18829L70.9415 2.81171ZM70.6528 5.02588C69.966 4.63343 69.2726 4.34235 68.5729 4.15672L68.3165 5.12328C68.9235 5.28432 69.5367 5.5399 70.1566 5.89412L70.6528 5.02588ZM68.582 4.15924C67.8878 3.96088 67.2015 3.86 66.5247 3.86V4.86C67.1012 4.86 67.6949 4.94579 68.3073 5.12076L68.582 4.15924ZM66.5247 3.86C65.8644 3.86 65.2871 3.93655 64.8126 4.11056L65.1568 5.04944C65.4822 4.93012 65.9317 4.86 66.5247 4.86V3.86ZM64.8126 4.11056C64.3582 4.27717 63.9715 4.51813 63.7193 4.86725L64.53 5.45274C64.6245 5.32187 64.8112 5.17617 65.1568 5.04944L64.8126 4.11056ZM63.7275 4.85627C63.4824 5.17684 63.3647 5.55228 63.3647 5.96H64.3647C64.3647 5.75438 64.4203 5.59649 64.5219 5.46372L63.7275 4.85627ZM63.3647 5.96C63.3647 6.48015 63.5874 6.91758 63.999 7.23564L64.6104 6.44436C64.4353 6.30908 64.3647 6.15985 64.3647 5.96H63.3647ZM64.0106 7.24437C64.3667 7.50332 64.8133 7.69798 65.3309 7.84176L65.5985 6.87824C65.1561 6.75535 64.8294 6.60335 64.5988 6.43563L64.0106 7.24437ZM65.3309 7.84176C65.8188 7.97729 66.3524 8.11235 66.9314 8.247L67.1579 7.27299C66.5903 7.14099 66.0706 7.00938 65.5985 6.87824L65.3309 7.84176ZM66.9339 8.24757C67.5092 8.37832 68.0779 8.52867 68.64 8.69861L68.9294 7.74139C68.3448 7.56466 67.7535 7.40835 67.1555 7.27243L66.9339 8.24757ZM68.643 8.69951C69.1915 8.86156 69.6843 9.07794 70.124 9.34664L70.6454 8.49336C70.1251 8.1754 69.5512 7.92511 68.9264 7.74049L68.643 8.69951ZM70.124 9.34664C70.5363 9.59861 70.8661 9.92841 71.118 10.3407L71.9713 9.81927C71.6366 9.27159 71.1931 8.82805 70.6454 8.49336L70.124 9.34664ZM71.1233 10.3492C71.3658 10.7287 71.5047 11.235 71.5047 11.9H72.5047C72.5047 11.0984 72.3369 10.3913 71.966 9.81081L71.1233 10.3492ZM71.5047 11.9C71.5047 12.587 71.3145 13.2098 70.93 13.7807L71.7594 14.3393C72.2549 13.6035 72.5047 12.7863 72.5047 11.9H71.5047ZM70.93 13.7807C70.5522 14.3416 69.9727 14.8144 69.1578 15.1848L69.5716 16.0952C70.5167 15.6656 71.2571 15.0851 71.7594 14.3393L70.93 13.7807ZM69.1552 15.186C68.3748 15.5462 67.3525 15.74 66.0647 15.74V16.74C67.4435 16.74 68.6212 16.5338 69.5742 16.094L69.1552 15.186ZM77.8986 15.72L77.7164 16.1857L77.7245 16.1887L77.8986 15.72ZM75.4986 14.2L75.1522 14.5606L75.4986 14.2ZM73.8986 11.9L73.4383 12.0953L73.4408 12.1011L73.8986 11.9ZM73.8986 6.1L73.4408 5.89885L73.4383 5.90472L73.8986 6.1ZM75.4986 3.8L75.1557 3.43609L75.1522 3.43945L75.4986 3.8ZM77.9186 2.3L78.0949 2.76792L78.1008 2.76562L77.9186 2.3ZM84.2186 2.4L84.0178 2.858L84.0254 2.86117L84.2186 2.4ZM86.6986 4.24L87.0377 4.6074L87.3841 4.28764L87.0853 3.92304L86.6986 4.24ZM84.6186 6.16L84.2429 6.4899L84.5811 6.87508L84.9577 6.5274L84.6186 6.16ZM83.0186 4.94L82.8032 5.39132L82.8117 5.39518L83.0186 4.94ZM77.8786 5.76L78.2321 6.11355L77.8786 5.76ZM76.9386 7.18L76.4766 6.98845L76.4728 6.99823L76.9386 7.18ZM76.9386 10.82L76.4727 11.0018L76.4767 11.0115L76.9386 10.82ZM77.8786 12.24L77.525 12.5936L77.8786 12.24ZM83.0186 13.08L83.2255 13.5353L83.234 13.5312L83.0186 13.08ZM84.6186 11.82L84.9577 11.4526L84.5766 11.1007L84.239 11.4946L84.6186 11.82ZM86.6986 13.74L87.0853 14.057L87.3841 13.6924L87.0377 13.3726L86.6986 13.74ZM84.2186 15.6L84.0201 15.1411L84.0179 15.1421L84.2186 15.6ZM80.9186 15.74C79.893 15.74 78.9458 15.5756 78.0727 15.2513L77.7245 16.1887C78.7181 16.5578 79.7842 16.74 80.9186 16.74V15.74ZM78.0808 15.2544C77.2189 14.9171 76.4755 14.4452 75.845 13.8394L75.1522 14.5606C75.8817 15.2615 76.7383 15.8029 77.7164 16.1856L78.0808 15.2544ZM75.845 13.8394C75.2131 13.2323 74.7172 12.5201 74.3564 11.6989L73.4408 12.1011C73.8533 13.0399 74.4241 13.861 75.1522 14.5606L75.845 13.8394ZM74.3589 11.7047C74.0143 10.8925 73.8386 9.99311 73.8386 9H72.8386C72.8386 10.1136 73.0362 11.1475 73.4383 12.0953L74.3589 11.7047ZM73.8386 9C73.8386 8.00689 74.0143 7.10748 74.3589 6.29527L73.4383 5.90472C73.0362 6.85252 72.8386 7.88644 72.8386 9H73.8386ZM74.3564 6.30114C74.7172 5.47986 75.2131 4.76766 75.845 4.16055L75.1522 3.43945C74.4241 4.13901 73.8533 4.96013 73.4408 5.89886L74.3564 6.30114ZM75.8415 4.16389C76.4852 3.55736 77.2347 3.092 78.0949 2.76788L77.7423 1.83211C76.7625 2.20133 75.8987 2.73598 75.1557 3.43611L75.8415 4.16389ZM78.1008 2.76562C78.9568 2.43064 79.901 2.26 80.9386 2.26V1.26C79.7896 1.26 78.7203 1.44936 77.7364 1.83438L78.1008 2.76562ZM80.9386 2.26C82.0926 2.26 83.1162 2.46268 84.0179 2.85793L84.4193 1.94207C83.3744 1.48399 82.2113 1.26 80.9386 1.26V2.26ZM84.0254 2.86117C84.9381 3.24352 85.6979 3.8079 86.3119 4.55696L87.0853 3.92304C86.3659 3.04543 85.4724 2.38315 84.4118 1.93883L84.0254 2.86117ZM86.3595 3.8726L84.2795 5.7926L84.9577 6.5274L87.0377 4.6074L86.3595 3.8726ZM84.9943 5.8301C84.4736 5.23705 83.8845 4.78437 83.2255 4.48482L82.8117 5.39518C83.326 5.62896 83.8036 5.98961 84.2429 6.4899L84.9943 5.8301ZM83.234 4.48876C82.5756 4.17455 81.8614 4.02 81.0986 4.02V5.02C81.7225 5.02 82.2882 5.14545 82.8032 5.39124L83.234 4.48876ZM81.0986 4.02C80.3901 4.02 79.7276 4.13585 79.1168 4.37421L79.4804 5.30579C79.9629 5.11749 80.5004 5.02 81.0986 5.02V4.02ZM79.1168 4.37421C78.5082 4.61172 77.9758 4.95573 77.525 5.40645L78.2321 6.11355C78.5814 5.76427 78.9956 5.49495 79.4804 5.30579L79.1168 4.37421ZM77.525 5.40645C77.0765 5.85496 76.7273 6.38407 76.4767 6.98849L77.4005 7.37151C77.6032 6.88259 77.8807 6.46504 78.2321 6.11355L77.525 5.40645ZM76.4728 6.99823C76.234 7.61017 76.1186 8.27953 76.1186 9H77.1186C77.1186 8.38713 77.2165 7.84317 77.4044 7.36177L76.4728 6.99823ZM76.1186 9C76.1186 9.72047 76.234 10.3898 76.4728 11.0018L77.4044 10.6382C77.2165 10.1568 77.1186 9.61287 77.1186 9H76.1186ZM76.4767 11.0115C76.7273 11.6159 77.0765 12.145 77.525 12.5936L78.2321 11.8864C77.8807 11.535 77.6032 11.1174 77.4005 10.6285L76.4767 11.0115ZM77.525 12.5936C77.9758 13.0443 78.5082 13.3883 79.1168 13.6258L79.4804 12.6942C78.9956 12.5051 78.5814 12.2357 78.2321 11.8864L77.525 12.5936ZM79.1168 13.6258C79.7276 13.8642 80.3901 13.98 81.0986 13.98V12.98C80.5004 12.98 79.9629 12.8825 79.4804 12.6942L79.1168 13.6258ZM81.0986 13.98C81.8578 13.98 82.569 13.8336 83.2255 13.5352L82.8117 12.6248C82.2948 12.8598 81.7261 12.98 81.0986 12.98V13.98ZM83.234 13.5312C83.8915 13.2174 84.4789 12.7512 84.9982 12.1454L84.239 11.4946C83.7982 12.0088 83.319 12.3826 82.8032 12.6288L83.234 13.5312ZM84.2795 12.1874L86.3595 14.1074L87.0377 13.3726L84.9577 11.4526L84.2795 12.1874ZM86.3119 13.423C85.6969 14.1733 84.9353 14.7453 84.0201 15.1411L84.417 16.0589C85.4752 15.6014 86.3669 14.9334 87.0853 14.057L86.3119 13.423ZM84.0179 15.1421C83.1168 15.537 82.0867 15.74 80.9186 15.74V16.74C82.2038 16.74 83.3737 16.5163 84.4193 16.0579L84.0179 15.1421ZM98.4866 2V1.5H97.9866V2H98.4866ZM101.727 2H102.227V1.5H101.727V2ZM101.727 16V16.5H102.227V16H101.727ZM98.4866 16H97.9866V16.5H98.4866V16ZM92.1266 16V16.5H92.6266V16H92.1266ZM88.8866 16H88.3866V16.5H88.8866V16ZM88.8866 2V1.5H88.3866V2H88.8866ZM92.1266 2H92.6266V1.5H92.1266V2ZM98.7266 10.26V10.76H99.2266V10.26H98.7266ZM91.8866 10.26H91.3866V10.76H91.8866V10.26ZM91.8866 7.52V7.02H91.3866V7.52H91.8866ZM98.7266 7.52H99.2266V7.02H98.7266V7.52ZM98.4866 2.5H101.727V1.5H98.4866V2.5ZM101.227 2V16H102.227V2H101.227ZM101.727 15.5H98.4866V16.5H101.727V15.5ZM98.9866 16V2H97.9866V16H98.9866ZM92.1266 15.5H88.8866V16.5H92.1266V15.5ZM89.3866 16V2H88.3866V16H89.3866ZM88.8866 2.5H92.1266V1.5H88.8866V2.5ZM91.6266 2V16H92.6266V2H91.6266ZM98.7266 9.76H91.8866V10.76H98.7266V9.76ZM92.3866 10.26V7.52H91.3866V10.26H92.3866ZM91.8866 8.02H98.7266V7.02H91.8866V8.02ZM98.2266 7.52V10.26H99.2266V7.52H98.2266ZM108.759 15.7L108.579 16.1665L108.581 16.1673L108.759 15.7ZM106.319 14.18L105.972 14.5406L105.976 14.5439L106.319 14.18ZM104.719 11.88L104.259 12.0753L104.261 12.0811L104.719 11.88ZM104.719 6.12L104.261 5.91885L104.259 5.92472L104.719 6.12ZM108.779 2.3L108.599 1.8335L108.779 2.3ZM114.859 2.3L114.677 2.76563L114.679 2.7665L114.859 2.3ZM117.279 3.82L116.932 4.18057L116.936 4.18389L117.279 3.82ZM118.899 6.12L118.441 6.32114L118.442 6.32372L118.899 6.12ZM118.899 11.9L119.357 12.1011L119.358 12.0986L118.899 11.9ZM117.279 14.2L117.622 14.5641L117.622 14.5639L117.279 14.2ZM114.859 15.7L114.679 15.2335L114.677 15.2344L114.859 15.7ZM113.539 13.16L113.353 12.6957L113.349 12.6974L113.539 13.16ZM114.939 12.24L114.585 11.8864V11.8864L114.939 12.24ZM115.859 10.82L115.397 10.6285L115.393 10.6382L115.859 10.82ZM115.859 7.18L115.393 7.36181L115.397 7.37151L115.859 7.18ZM114.939 5.76L114.579 6.10756L114.585 6.11355L114.939 5.76ZM113.559 4.84L113.373 5.30424L113.559 4.84ZM110.079 4.84L109.893 4.37574L109.889 4.37742L110.079 4.84ZM108.699 5.76L109.052 6.11355L108.699 5.76ZM107.759 7.18L107.297 6.98845L107.293 6.99823L107.759 7.18ZM107.759 10.82L107.292 10.998L107.294 11.0048L107.297 11.0115L107.759 10.82ZM108.679 12.24L108.319 12.5876L108.325 12.5936L108.679 12.24ZM110.079 13.16L109.893 13.6242L110.079 13.16ZM111.839 15.74C110.787 15.74 109.821 15.5691 108.937 15.2327L108.581 16.1673C109.59 16.5509 110.677 16.74 111.839 16.74V15.74ZM108.939 15.2335C108.063 14.8956 107.306 14.4228 106.662 13.8161L105.976 14.5439C106.719 15.2439 107.588 15.7844 108.579 16.1665L108.939 15.2335ZM106.665 13.8194C106.033 13.2123 105.538 12.5001 105.177 11.6789L104.261 12.0811C104.674 13.0199 105.244 13.841 105.972 14.5406L106.665 13.8194ZM105.179 11.6847C104.834 10.8717 104.659 9.97885 104.659 9H103.659C103.659 10.1011 103.857 11.1283 104.259 12.0753L105.179 11.6847ZM104.659 9C104.659 8.02115 104.834 7.12825 105.179 6.31527L104.259 5.92472C103.857 6.87174 103.659 7.89885 103.659 9H104.659ZM105.177 6.32114C105.537 5.50198 106.038 4.79081 106.682 4.18389L105.996 3.45611C105.253 4.15586 104.675 4.97802 104.261 5.91886L105.177 6.32114ZM106.682 4.18389C107.326 3.5772 108.083 3.10437 108.959 2.7665L108.599 1.8335C107.608 2.21563 106.739 2.75613 105.996 3.45611L106.682 4.18389ZM108.959 2.7665C109.83 2.43062 110.781 2.26 111.819 2.26V1.26C110.67 1.26 109.595 1.44938 108.599 1.8335L108.959 2.7665ZM111.819 2.26C112.871 2.26 113.821 2.43091 114.677 2.76562L115.041 1.83438C114.056 1.44909 112.98 1.26 111.819 1.26V2.26ZM114.679 2.7665C115.554 3.10407 116.303 3.576 116.932 4.18055L117.625 3.45945C116.895 2.75733 116.03 2.21593 115.039 1.8335L114.679 2.7665ZM116.936 4.18389C117.58 4.79081 118.081 5.50198 118.441 6.32114L119.357 5.91886C118.943 4.97802 118.364 4.15586 117.622 3.45611L116.936 4.18389ZM118.442 6.32372C118.797 7.11955 118.979 8.00911 118.979 9H119.979C119.979 7.88423 119.774 6.85378 119.356 5.91628L118.442 6.32372ZM118.979 9C118.979 9.97642 118.798 10.875 118.44 11.7014L119.358 12.0986C119.773 11.1384 119.979 10.1036 119.979 9H118.979ZM118.441 11.6989C118.081 12.518 117.58 13.2292 116.936 13.8361L117.622 14.5639C118.364 13.8641 118.943 13.042 119.357 12.1011L118.441 11.6989ZM116.936 13.8359C116.307 14.4285 115.556 14.8951 114.679 15.2335L115.039 16.1665C116.028 15.7849 116.891 15.2515 117.622 14.5641L116.936 13.8359ZM114.677 15.2344C113.821 15.5694 112.877 15.74 111.839 15.74V16.74C112.988 16.74 114.057 16.5506 115.041 16.1656L114.677 15.2344ZM111.819 13.98C112.503 13.98 113.142 13.8633 113.729 13.6226L113.349 12.6974C112.896 12.8834 112.388 12.98 111.819 12.98V13.98ZM113.725 13.6242C114.32 13.3862 114.844 13.0422 115.292 12.5936L114.585 11.8864C114.234 12.2378 113.825 12.5072 113.353 12.6958L113.725 13.6242ZM115.292 12.5936C115.743 12.1428 116.087 11.6104 116.325 11.0018L115.393 10.6382C115.204 11.123 114.935 11.5372 114.585 11.8864L115.292 12.5936ZM116.321 11.0115C116.576 10.3969 116.699 9.7241 116.699 9H115.699C115.699 9.60924 115.596 10.1498 115.397 10.6285L116.321 11.0115ZM116.699 9C116.699 8.2759 116.576 7.60308 116.321 6.98849L115.397 7.37151C115.596 7.85025 115.699 8.39076 115.699 9H116.699ZM116.325 6.99823C116.087 6.38962 115.743 5.85717 115.292 5.40645L114.585 6.11355C114.935 6.46283 115.204 6.87705 115.393 7.36177L116.325 6.99823ZM115.298 5.41249C114.861 4.96009 114.341 4.61443 113.745 4.37576L113.373 5.30424C113.843 5.49224 114.243 5.75991 114.579 6.10751L115.298 5.41249ZM113.745 4.37576C113.147 4.13674 112.503 4.02 111.819 4.02V5.02C112.388 5.02 112.904 5.1166 113.373 5.30424L113.745 4.37576ZM111.819 4.02C111.134 4.02 110.491 4.13674 109.893 4.37576L110.265 5.30424C110.734 5.1166 111.25 5.02 111.819 5.02V4.02ZM109.889 4.37742C109.307 4.61605 108.792 4.95992 108.345 5.40645L109.052 6.11355C109.406 5.76007 109.81 5.49061 110.269 5.30258L109.889 4.37742ZM108.345 5.40645C107.897 5.85496 107.548 6.38407 107.297 6.98849L108.221 7.37151C108.424 6.88259 108.701 6.46504 109.052 6.11355L108.345 5.40645ZM107.293 6.99823C107.054 7.61017 106.939 8.27953 106.939 9H107.939C107.939 8.38713 108.037 7.84317 108.225 7.36177L107.293 6.99823ZM106.939 9C106.939 9.70866 107.055 10.3762 107.292 10.998L108.226 10.642C108.036 10.1438 107.939 9.598 107.939 9H106.939ZM107.297 11.0115C107.546 11.6124 107.886 12.1396 108.319 12.5875L109.038 11.8925C108.698 11.5404 108.425 11.1209 108.221 10.6285L107.297 11.0115ZM108.325 12.5936C108.774 13.0422 109.298 13.3862 109.893 13.6242L110.265 12.6958C109.793 12.5072 109.384 12.2378 109.032 11.8864L108.325 12.5936ZM109.893 13.6242C110.491 13.8633 111.134 13.98 111.819 13.98V12.98C111.25 12.98 110.734 12.8834 110.265 12.6958L109.893 13.6242ZM125.634 15.7L125.454 16.1665L125.456 16.1673L125.634 15.7ZM123.194 14.18L122.847 14.5406L122.851 14.5439L123.194 14.18ZM121.594 11.88L121.134 12.0753L121.136 12.0811L121.594 11.88ZM121.594 6.12L121.136 5.91885L121.134 5.92472L121.594 6.12ZM125.654 2.3L125.474 1.8335L125.654 2.3ZM131.734 2.3L131.552 2.76563L131.554 2.7665L131.734 2.3ZM134.154 3.82L133.807 4.18057L133.811 4.18389L134.154 3.82ZM135.774 6.12L135.316 6.32114L135.317 6.32372L135.774 6.12ZM135.774 11.9L136.232 12.1011L136.233 12.0986L135.774 11.9ZM134.154 14.2L134.497 14.5641L134.497 14.5639L134.154 14.2ZM131.734 15.7L131.554 15.2335L131.552 15.2344L131.734 15.7ZM130.414 13.16L130.228 12.6957L130.224 12.6974L130.414 13.16ZM131.814 12.24L131.46 11.8864V11.8864L131.814 12.24ZM132.734 10.82L132.272 10.6285L132.268 10.6382L132.734 10.82ZM132.734 7.18L132.268 7.36181L132.272 7.37151L132.734 7.18ZM131.814 5.76L131.454 6.10756L131.46 6.11355L131.814 5.76ZM130.434 4.84L130.248 5.30424L130.434 4.84ZM126.954 4.84L126.768 4.37574L126.764 4.37742L126.954 4.84ZM125.574 5.76L125.927 6.11355L125.574 5.76ZM124.634 7.18L124.172 6.98845L124.168 6.99823L124.634 7.18ZM124.634 10.82L124.167 10.998L124.169 11.0048L124.172 11.0115L124.634 10.82ZM125.554 12.24L125.194 12.5876L125.2 12.5936L125.554 12.24ZM126.954 13.16L126.768 13.6242L126.954 13.16ZM128.714 15.74C127.662 15.74 126.696 15.5691 125.812 15.2327L125.456 16.1673C126.465 16.5509 127.552 16.74 128.714 16.74V15.74ZM125.814 15.2335C124.938 14.8956 124.181 14.4228 123.537 13.8161L122.851 14.5439C123.594 15.2439 124.463 15.7844 125.454 16.1665L125.814 15.2335ZM123.54 13.8194C122.908 13.2123 122.413 12.5001 122.052 11.6789L121.136 12.0811C121.549 13.0199 122.119 13.841 122.847 14.5406L123.54 13.8194ZM122.054 11.6847C121.709 10.8717 121.534 9.97885 121.534 9H120.534C120.534 10.1011 120.732 11.1283 121.134 12.0753L122.054 11.6847ZM121.534 9C121.534 8.02115 121.709 7.12825 122.054 6.31527L121.134 5.92472C120.732 6.87174 120.534 7.89885 120.534 9H121.534ZM122.052 6.32114C122.412 5.50198 122.913 4.79081 123.557 4.18389L122.871 3.45611C122.128 4.15586 121.55 4.97802 121.136 5.91886L122.052 6.32114ZM123.557 4.18389C124.201 3.5772 124.958 3.10437 125.834 2.7665L125.474 1.8335C124.483 2.21563 123.614 2.75613 122.871 3.45611L123.557 4.18389ZM125.834 2.7665C126.705 2.43062 127.656 2.26 128.694 2.26V1.26C127.545 1.26 126.47 1.44938 125.474 1.8335L125.834 2.7665ZM128.694 2.26C129.746 2.26 130.696 2.43091 131.552 2.76562L131.916 1.83438C130.931 1.44909 129.855 1.26 128.694 1.26V2.26ZM131.554 2.7665C132.429 3.10407 133.178 3.576 133.807 4.18055L134.5 3.45945C133.77 2.75733 132.905 2.21593 131.914 1.8335L131.554 2.7665ZM133.811 4.18389C134.455 4.79081 134.956 5.50198 135.316 6.32114L136.232 5.91886C135.818 4.97802 135.239 4.15586 134.497 3.45611L133.811 4.18389ZM135.317 6.32372C135.672 7.11955 135.854 8.00911 135.854 9H136.854C136.854 7.88423 136.649 6.85378 136.231 5.91628L135.317 6.32372ZM135.854 9C135.854 9.97642 135.673 10.875 135.315 11.7014L136.233 12.0986C136.648 11.1384 136.854 10.1036 136.854 9H135.854ZM135.316 11.6989C134.956 12.518 134.455 13.2292 133.811 13.8361L134.497 14.5639C135.239 13.8641 135.818 13.042 136.232 12.1011L135.316 11.6989ZM133.811 13.8359C133.182 14.4285 132.431 14.8951 131.554 15.2335L131.914 16.1665C132.903 15.7849 133.766 15.2515 134.497 14.5641L133.811 13.8359ZM131.552 15.2344C130.696 15.5694 129.752 15.74 128.714 15.74V16.74C129.863 16.74 130.932 16.5506 131.916 16.1656L131.552 15.2344ZM128.694 13.98C129.378 13.98 130.017 13.8633 130.604 13.6226L130.224 12.6974C129.771 12.8834 129.263 12.98 128.694 12.98V13.98ZM130.6 13.6242C131.195 13.3862 131.719 13.0422 132.167 12.5936L131.46 11.8864C131.109 12.2378 130.7 12.5072 130.228 12.6958L130.6 13.6242ZM132.167 12.5936C132.618 12.1428 132.962 11.6104 133.2 11.0018L132.268 10.6382C132.079 11.123 131.81 11.5372 131.46 11.8864L132.167 12.5936ZM133.196 11.0115C133.451 10.3969 133.574 9.7241 133.574 9H132.574C132.574 9.60924 132.471 10.1498 132.272 10.6285L133.196 11.0115ZM133.574 9C133.574 8.2759 133.451 7.60308 133.196 6.98849L132.272 7.37151C132.471 7.85025 132.574 8.39076 132.574 9H133.574ZM133.2 6.99823C132.962 6.38962 132.618 5.85717 132.167 5.40645L131.46 6.11355C131.81 6.46283 132.079 6.87705 132.268 7.36177L133.2 6.99823ZM132.173 5.41249C131.736 4.96009 131.216 4.61443 130.62 4.37576L130.248 5.30424C130.718 5.49224 131.118 5.75991 131.454 6.10751L132.173 5.41249ZM130.62 4.37576C130.022 4.13674 129.378 4.02 128.694 4.02V5.02C129.263 5.02 129.779 5.1166 130.248 5.30424L130.62 4.37576ZM128.694 4.02C128.009 4.02 127.366 4.13674 126.768 4.37576L127.14 5.30424C127.609 5.1166 128.125 5.02 128.694 5.02V4.02ZM126.764 4.37742C126.182 4.61605 125.667 4.95992 125.22 5.40645L125.927 6.11355C126.281 5.76007 126.685 5.49061 127.144 5.30258L126.764 4.37742ZM125.22 5.40645C124.772 5.85496 124.423 6.38407 124.172 6.98849L125.096 7.37151C125.299 6.88259 125.576 6.46504 125.927 6.11355L125.22 5.40645ZM124.168 6.99823C123.929 7.61017 123.814 8.27953 123.814 9H124.814C124.814 8.38713 124.912 7.84317 125.1 7.36177L124.168 6.99823ZM123.814 9C123.814 9.70866 123.93 10.3762 124.167 10.998L125.101 10.642C124.911 10.1438 124.814 9.598 124.814 9H123.814ZM124.172 11.0115C124.421 11.6124 124.761 12.1396 125.194 12.5875L125.913 11.8925C125.573 11.5404 125.3 11.1209 125.096 10.6285L124.172 11.0115ZM125.2 12.5936C125.649 13.0422 126.173 13.3862 126.768 13.6242L127.14 12.6958C126.668 12.5072 126.259 12.2378 125.907 11.8864L125.2 12.5936ZM126.768 13.6242C127.366 13.8633 128.009 13.98 128.694 13.98V12.98C128.125 12.98 127.609 12.8834 127.14 12.6958L126.768 13.6242ZM138.789 16H138.289V16.5H138.789V16ZM138.789 2V1.5H138.289V2H138.789ZM142.029 2H142.529V1.5H142.029V2ZM142.029 13.36H141.529V13.86H142.029V13.36ZM149.049 13.36H149.549V12.86H149.049V13.36ZM149.049 16V16.5H149.549V16H149.049ZM139.289 16V2H138.289V16H139.289ZM138.789 2.5H142.029V1.5H138.789V2.5ZM141.529 2V13.36H142.529V2H141.529ZM142.029 13.86H149.049V12.86H142.029V13.86ZM148.549 13.36V16H149.549V13.36H148.549ZM149.049 15.5H138.789V16.5H149.049V15.5Z" fill="#484848" mask="url(#path-1-outside-1_26_19)"/>
</g>
<defs>
<filter id="filter0_d_26_19" x="0.660004" y="0.760002" width="151.389" height="18.48" filterUnits="userSpaceOnUse" color-interpolation-filters="sRGB">
<feFlood flood-opacity="0" result="BackgroundImageFix"/>
<feColorMatrix in="SourceAlpha" type="matrix" values="0 0 0 0 0 0 0 0 0 0 0 0 0 0 0 0 0 0 127 0" result="hardAlpha"/>
<feOffset dx="1" dy="1"/>
<feGaussianBlur stdDeviation="1"/>
<feComposite in2="hardAlpha" operator="out"/>
<feColorMatrix type="matrix" values="0 0 0 0 0 0 0 0 0 0 0 0 0 0 0 0 0 0 0.2 0"/>
<feBlend mode="normal" in2="BackgroundImageFix" result="effect1_dropShadow_26_19"/>
<feBlend mode="normal" in="SourceGraphic" in2="effect1_dropShadow_26_19" result="shape"/>
</filter>
</defs>
</svg>
